<?xml version="1.0" encoding="utf-8"?>
<!-- Generator: Adobe Illustrator 27.5.0, SVG Export Plug-In . SVG Version: 6.00 Build 0)  -->
<svg version="1.1" xmlns="http://www.w3.org/2000/svg" xmlns:xlink="http://www.w3.org/1999/xlink" x="0px" y="0px"
	 viewBox="0 0 500 500" style="enable-background:new 0 0 500 500;" xml:space="preserve">
<g id="BACKGROUND">
	<rect style="fill:#FFFFFF;" width="500" height="500"/>
</g>
<g id="OBJECTS">
	<g>
		<path style="fill:#D6E7F2;" d="M375.409,319.303c-1.156,0-2.269,0.173-3.326,0.48c-2.288-7.277-9.086-12.556-17.119-12.556
			c-0.757,0-1.498,0.062-2.23,0.153c-3.723-10.209-13.517-17.499-25.014-17.499c-11.497,0-21.291,7.29-25.014,17.499
			c-0.732-0.091-1.473-0.153-2.23-0.153c-8.033,0-14.83,5.279-17.119,12.556c-1.056-0.307-2.17-0.48-3.326-0.48
			c-6.576,0-11.906,5.331-11.906,11.906c0,6.576,5.331,11.906,11.906,11.906h95.377c6.576,0,11.906-5.331,11.906-11.906
			C387.315,324.634,381.984,319.303,375.409,319.303z"/>
		<path style="fill:#D6E7F2;" d="M169.011,294.559c-0.925,0-1.816,0.138-2.661,0.384c-1.831-5.823-7.271-10.048-13.699-10.048
			c-0.606,0-1.199,0.05-1.785,0.122c-2.979-8.17-10.816-14.003-20.016-14.003s-17.037,5.833-20.016,14.003
			c-0.586-0.073-1.179-0.122-1.785-0.122c-6.428,0-11.867,4.225-13.699,10.048c-0.845-0.246-1.737-0.384-2.661-0.384
			c-5.262,0-9.528,4.266-9.528,9.528c0,5.262,4.266,9.527,9.528,9.527h76.322c5.262,0,9.527-4.266,9.527-9.527
			C178.538,298.825,174.273,294.559,169.011,294.559z"/>
		<path style="fill:#D6E7F2;" d="M290.274,185.882c-0.925,0-1.816,0.138-2.661,0.384c-1.831-5.823-7.271-10.048-13.699-10.048
			c-0.606,0-1.199,0.05-1.784,0.122c-2.979-8.17-10.816-14.003-20.017-14.003c-9.2,0-17.037,5.833-20.016,14.003
			c-0.586-0.073-1.179-0.122-1.784-0.122c-6.428,0-11.867,4.224-13.699,10.048c-0.846-0.246-1.737-0.384-2.661-0.384
			c-5.262,0-9.528,4.266-9.528,9.527c0,5.262,4.266,9.528,9.528,9.528h76.322c5.262,0,9.528-4.266,9.528-9.528
			C299.801,190.147,295.536,185.882,290.274,185.882z"/>
	</g>
	<g>
		<path style="fill:#FFFFFF;" d="M370.055,226.954c0,0-3.468-9.536-13.004-11.992c-9.536-2.456-20.517-2.023-34.243,15.316
			c-2.42,3.057-4.858,5.662-7.237,7.902c0.116-14.219,0.802-50.296,4.636-83.902c4.913-43.057,7.513-54.905,7.513-54.905
			s-12.913,1.768-18.435,32.793l-5.689-37.128c0,0-8.25,7.398-8.229,30.347l-10.993-23.412c0,0-7.808,8.199-4.114,29.332
			l-11.339-17.179c0,0-4.495,11.744-2.871,26.49l-11.204-7.464c0,0-4.008,11.905,0.292,29.56l-10.811-6.819
			c0,0-1.934,13.303,2.432,25.616l-6.455-1.802c0,0-1.279,12.79,4.84,27.143l-6.429-4.531c0,0-4.39,16.022,2.7,28.621
			c-4.513-2.076-8.807-3.945-12.597-5.431c-22.106-8.669-49.198-24.707-74.338-81.49c0,0-2.344,8.169,2.248,21.799l-0.005-0.008
			l-17.558-29.883c0,0-3.295,9.279,1.606,23.295l-13.165-13.903c0,0-4.446,11.22,7.812,29.04l-0.011-0.01l-14.303-9.308
			c0,0-3.706,11.952,17.094,29.222l-0.009-0.005l-17.342-7.76c0,0-1.137,9.154,13.943,19.897l-0.001,0l-7.972-0.824
			c0,0-1.93,7.846,14.496,15.822l-0.001,0l-12.406-0.542c0,0,3.905,11.756,19.992,16.082l-11.756,1.616
			c0,0,2.708,8.698,20.378,12.634l-0.041-0.007l-8.633,1.903c0,0,5.038,7.512,20.561,10.049l-8.455,4.862
			c0,0,4.755,4.881,17.962,6.003l-5.94,6.856c0,0,9.124,5.832,27.714,4.478l-5.463,5.925c0,0,10.758,7.351,30.356,1.43l-3.565,6.95
			c0,0,10.204,4.653,19.891-1.014c-12.462,14.823-17.333,30.155-18.185,33.095c-15.818,9.977-38.551,26.035-39.102,36.22
			l-8.792,6.399c0,0,3.59,3.934,7.988,3.706l-7.988,7.419c0,0,3.667,1.993,7.083,1.803l-0.039,0.039l-4.985,7.802
			c0,0,6.42,2.057,11.365-1.194l-1.54,11.055c0,0,11.361-4.336,16.15-11.786l-2.423,7.718c6.029-2.974,9.858-8.073,12.294-13.31
			c8.405-1.302,14.282-12.899,17.626-21.919l-1.31,1.616l2.596-5.305l1.386-7.046c0,0,11.555-5.656,11.704-5.68
			c0.071-0.011,0.883-1.045,1.713-2.124c6.527,2.033,15.793,2.471,24.577-5.826c19.072-3.793,44.896-3.63,63.642-59.659
			c8.709-26.03,14.304-34.315,22.54-40.673c8.236-6.357,20.95-1.011,20.95-1.011C379.591,231.289,370.055,226.954,370.055,226.954z"
			/>
		<g>
			<g>
				<g>
					<path style="fill:#1D3244;" d="M290.154,255.852c-13.981-6.023-27.618-12.611-41.322-18.975
						c-6.854-3.161-13.711-6.333-20.677-9.027c-3.567-1.406-7.158-2.863-10.631-4.586l-2.604-1.296
						c-0.857-0.454-1.698-0.941-2.548-1.411c-0.844-0.48-1.703-0.934-2.535-1.436l-2.467-1.553
						c-6.56-4.173-12.628-9.11-18.084-14.607l-2.032-2.076c-0.684-0.686-1.357-1.382-1.978-2.122l-3.816-4.365
						c-1.218-1.497-2.391-3.028-3.575-4.55c-0.583-0.767-1.197-1.513-1.755-2.298l-1.648-2.37
						c-4.523-6.241-8.343-12.914-12.01-19.635c-1.794-3.382-3.443-6.834-5.168-10.245c-1.593-3.472-3.098-6.983-4.649-10.469
						l-0.001-0.001l3.751-0.257c-0.064,0.261-0.129,0.763-0.196,1.14l-0.125,1.282c-0.074,0.857-0.068,1.747-0.112,2.618
						l0.105,2.654c0.066,0.885,0.204,1.772,0.3,2.657c0.075,0.888,0.268,1.766,0.451,2.645c0.183,0.878,0.316,1.765,0.524,2.64
						l0.724,2.607c0.246,0.868,0.451,1.747,0.797,2.588c2.35,6.848,5.748,13.394,9.868,19.479l1.499,2.315
						c0.492,0.777,1.095,1.48,1.638,2.225l3.34,4.415c0.528,0.76,1.162,1.437,1.757,2.145l1.807,2.108
						c1.223,1.39,2.372,2.852,3.616,4.229l7.677,8.115c1.347,1.289,2.675,2.603,4,3.927c1.329,1.319,2.664,2.637,3.969,3.998
						c-1.535-1.078-3.041-2.198-4.552-3.317c-1.515-1.114-3.027-2.238-4.52-3.388c-1.498-1.144-2.862-2.444-4.292-3.673
						c-1.421-1.24-2.827-2.499-4.23-3.765c-1.366-1.303-2.662-2.682-3.975-4.044l-1.964-2.051c-0.648-0.69-1.333-1.348-1.919-2.096
						l-3.611-4.404c-0.588-0.746-1.234-1.447-1.775-2.231l-1.645-2.337l-1.64-2.343c-0.544-0.783-1.103-1.557-1.563-2.398
						l-2.903-4.956c-0.895-1.696-1.672-3.459-2.505-5.191c-0.439-0.855-0.756-1.77-1.098-2.672l-1.019-2.711
						c-0.371-0.892-0.603-1.837-0.874-2.768l-0.795-2.799c-0.229-0.944-0.394-1.908-0.585-2.863
						c-0.181-0.958-0.37-1.913-0.441-2.895c-0.091-0.976-0.22-1.946-0.277-2.927l-0.065-2.958c0.066-0.997,0.065-1.984,0.198-2.987
						c0.128-1.025,0.249-1.944,0.564-3.118l1.417-5.28l2.334,5.023l0.001,0.001l4.955,10.146c1.779,3.31,3.48,6.663,5.319,9.932
						l2.845,4.851l1.421,2.425l1.527,2.355l3.026,4.724c1.041,1.551,2.155,3.049,3.227,4.576l1.623,2.28
						c0.549,0.754,1.15,1.465,1.722,2.2c1.167,1.45,2.291,2.937,3.47,4.374l3.677,4.188c0.598,0.712,1.245,1.377,1.901,2.031
						l1.95,1.982c5.253,5.223,10.949,9.982,17.158,13.987c6.207,4.014,12.859,7.284,19.794,10.089
						c7.117,2.927,14.014,6.159,20.813,9.585c3.396,1.718,6.783,3.445,10.112,5.282c3.346,1.803,6.665,3.653,9.947,5.569
						C277.371,247.599,283.866,251.551,290.154,255.852z"/>
				</g>
				<g>
					<path style="fill:#1D3244;" d="M154.999,166.824l-17.558-29.883l3.609-0.344l0,0.001c-0.191,0.651-0.382,1.59-0.503,2.426
						c-0.131,0.861-0.216,1.742-0.279,2.624c-0.119,1.767-0.086,3.555,0.05,5.337c0.329,3.562,1.03,7.112,2.171,10.546
						c1.131,3.434,2.585,6.781,4.342,9.984c1.766,3.199,3.787,6.27,5.992,9.221c4.456,5.875,9.638,11.236,15.218,16.188
						c5.557,4.987,11.452,9.633,17.399,14.347c-6.83-3.306-13.293-7.37-19.32-12.051c-1.497-1.182-2.948-2.425-4.424-3.641
						c-1.397-1.306-2.846-2.559-4.203-3.914c-1.356-1.356-2.731-2.695-4.006-4.138c-1.328-1.392-2.545-2.888-3.769-4.379
						c-2.382-3.036-4.621-6.207-6.555-9.586c-1.906-3.391-3.556-6.955-4.783-10.686c-1.246-3.723-2.034-7.623-2.308-11.578
						c-0.12-1.98-0.126-3.972,0.039-5.966c0.084-0.997,0.198-1.994,0.393-2.99c0.197-1.022,0.391-1.934,0.777-3.079l0.001-0.004
						l1.4-4.103l2.209,3.76l17.558,29.883L154.999,166.824z"/>
				</g>
				<g>
					<path style="fill:#1D3244;" d="M139.361,160.643l-13.206-13.948l3.311-0.637l0,0l-0.052,0.198l-0.062,0.297
						c-0.04,0.199-0.09,0.389-0.124,0.594l-0.16,1.275c-0.033,0.431-0.038,0.877-0.062,1.313c-0.018,0.439-0.058,0.873-0.01,1.323
						l0.079,1.335c0.018,0.445,0.044,0.889,0.14,1.334c0.158,0.889,0.285,1.78,0.459,2.665c0.534,1.746,0.87,3.532,1.635,5.223
						c0.342,0.854,0.648,1.719,1.015,2.563l1.259,2.481c3.449,6.587,8.184,12.557,13.373,18.119
						c1.298,1.391,2.738,2.656,4.092,4.002l2.051,2.006c0.344,0.332,0.678,0.675,1.032,0.998l1.097,0.931
						c1.466,1.237,2.925,2.485,4.373,3.751l2.18,1.892c0.734,0.622,1.524,1.176,2.281,1.773l4.568,3.559
						c1.529,1.182,3.01,2.44,4.62,3.515c3.151,2.251,6.303,4.518,9.41,6.89c-3.481-1.738-6.917-3.582-10.354-5.441
						c-1.736-0.901-3.375-1.961-5.027-3.005l-4.951-3.153c-0.817-0.539-1.656-1.048-2.45-1.622l-2.359-1.757
						c-1.578-1.166-3.145-2.351-4.705-3.547l-1.173-0.894c-0.381-0.311-0.743-0.646-1.116-0.968l-2.222-1.951
						c-1.462-1.325-2.977-2.591-4.38-3.986l-4.113-4.3c-0.694-0.71-1.374-1.433-1.971-2.236l-1.859-2.347l-1.858-2.35
						c-0.573-0.822-1.108-1.676-1.656-2.518l-1.624-2.543c-0.558-0.836-0.947-1.788-1.428-2.677l-1.371-2.715
						c-0.393-0.939-0.727-1.91-1.091-2.865c-0.794-1.88-1.217-3.922-1.707-5.919c-0.166-1.024-0.28-2.062-0.417-3.091
						c-0.085-0.511-0.1-1.036-0.105-1.563l-0.033-1.574c-0.031-0.521,0.029-1.055,0.07-1.585c0.051-0.531,0.07-1.058,0.154-1.59
						l0.31-1.598c0.064-0.27,0.151-0.547,0.227-0.818l0.119-0.409l0.18-0.492l0,0l1.069-3.005l2.242,2.368l13.206,13.947
						L139.361,160.643z"/>
				</g>
				<g>
					<path style="fill:#1D3244;" d="M134.317,176.026l-14.303-9.307l3.001-1.083l-0.047,0.417c-0.017,0.181-0.053,0.346-0.042,0.553
						c0.013,0.4-0.032,0.782,0.016,1.193l0.132,1.229c0.028,0.409,0.168,0.826,0.244,1.238c0.097,0.413,0.165,0.827,0.28,1.238
						l0.433,1.222l0.425,1.222l0.58,1.184c1.445,3.199,3.68,6.083,5.937,8.898c4.745,5.532,10.614,10.157,16.612,14.536
						c6.126,4.25,12.543,8.138,19.147,11.735c1.663,0.878,3.293,1.823,4.94,2.741c0.824,0.458,1.644,0.925,2.458,1.407l2.507,1.318
						c3.333,1.786,6.658,3.608,9.92,5.624c-3.668-1.043-7.273-2.28-10.871-3.553l-2.684-0.99c-0.881-0.364-1.755-0.743-2.625-1.132
						c-1.741-0.775-3.499-1.522-5.225-2.337c-3.514-1.502-6.817-3.449-10.189-5.259l-2.522-1.375
						c-0.831-0.476-1.632-1.01-2.45-1.512l-4.872-3.084c-6.323-4.379-12.522-9.117-17.649-15.135l-1.822-2.347
						c-0.595-0.793-1.249-1.532-1.743-2.415l-1.561-2.568c-0.276-0.416-0.485-0.88-0.694-1.344l-0.635-1.384
						c-0.208-0.463-0.427-0.919-0.624-1.388l-0.475-1.472l-0.467-1.472c-0.127-0.503-0.207-1.027-0.31-1.539
						c-0.083-0.52-0.224-1.018-0.254-1.556l-0.089-1.603c-0.028-0.533,0.045-1.099,0.069-1.645c0.006-0.268,0.069-0.568,0.115-0.856
						l0.076-0.434c0.029-0.152,0.09-0.365,0.139-0.543l0.716-2.57l2.285,1.487l14.303,9.307L134.317,176.026z"/>
				</g>
				<g>
					<path style="fill:#1D3244;" d="M313.19,238.542c0.105-11.717,0.494-23.373,1.083-35.045
						c0.591-11.666,1.381-23.325,2.464-34.963c1.075-11.65,2.483-23.233,3.911-34.814c0.73-5.791,1.486-11.579,2.308-17.364
						c0.842-5.806,1.654-11.519,2.81-17.406l0.001-0.006l2.223,2.41c-0.054,0.006-0.468,0.126-0.737,0.225
						c-0.304,0.136-0.618,0.248-0.924,0.418c-0.623,0.311-1.218,0.725-1.818,1.134c-0.559,0.487-1.167,0.901-1.682,1.464
						l-0.804,0.796c-0.258,0.279-0.495,0.584-0.744,0.874c-1.959,2.361-3.593,5.084-4.915,7.981
						c-0.375,0.699-0.625,1.469-0.941,2.202c-0.292,0.745-0.621,1.475-0.885,2.234c-0.487,1.535-1.059,3.041-1.482,4.603
						c-0.402,1.568-0.874,3.117-1.222,4.703l-1.007,4.772l-3.206-0.562l0.944-4.937c0.33-1.644,0.787-3.268,1.176-4.904
						c0.41-1.632,0.978-3.232,1.462-4.851c0.264-0.804,0.597-1.59,0.893-2.386c0.322-0.788,0.572-1.6,0.961-2.368
						c1.363-3.131,3.081-6.163,5.286-8.922c0.282-0.341,0.549-0.692,0.845-1.024l0.935-0.966c0.596-0.665,1.338-1.219,2.02-1.818
						c0.75-0.542,1.504-1.081,2.351-1.528c0.413-0.235,0.872-0.423,1.32-0.623c0.508-0.181,0.872-0.341,1.633-0.48l2.839-0.516
						l-0.615,2.927l-0.001,0.005c-1.09,5.553-1.93,11.385-2.757,17.113c-0.817,5.755-1.571,11.525-2.299,17.299
						c-1.424,11.556-2.829,23.119-3.896,34.684c-1.078,11.574-1.864,23.18-2.452,34.796c-0.587,11.61-0.974,23.259-1.078,34.854
						L313.19,238.542z"/>
				</g>
				<g>
					<path style="fill:#1D3244;" d="M311.44,146.227c-1.471-4.14-2.55-8.341-3.509-12.56c-0.954-4.22-1.702-8.471-2.497-12.715
						l-1.104-6.38l-1.021-6.392c-0.637-4.268-1.243-8.541-1.69-12.839l3.311,1.187v0c-0.052,0.063-0.279,0.326-0.42,0.512
						c-0.162,0.21-0.32,0.431-0.476,0.659c-0.306,0.462-0.616,0.933-0.897,1.431c-0.563,0.994-1.084,2.032-1.543,3.109
						c-0.907,2.159-1.649,4.423-2.21,6.749c-0.593,2.319-0.992,4.702-1.316,7.104c-0.339,2.401-0.506,4.835-0.625,7.278
						c-0.237,4.89-0.071,9.82,0.183,14.772c0.254,4.956,0.691,9.925,0.979,14.979c-1.765-4.744-3.016-9.653-3.912-14.642
						c-0.461-2.494-0.754-5.017-1.012-7.55c-0.189-2.538-0.342-5.086-0.339-7.648c-0.023-5.118,0.457-10.289,1.672-15.371
						c0.642-2.531,1.441-5.049,2.569-7.465c0.555-1.211,1.195-2.396,1.934-3.539c0.368-0.572,0.762-1.137,1.197-1.683
						c0.219-0.273,0.446-0.545,0.688-0.813c0.267-0.288,0.451-0.497,0.857-0.862l0,0l2.572-2.45l0.739,3.637
						c0.861,4.234,1.562,8.492,2.232,12.755l0.94,6.405l0.857,6.418c0.513,4.287,1.072,8.567,1.425,12.879
						C311.375,137.505,311.603,141.836,311.44,146.227z"/>
				</g>
				<g>
					<path style="fill:#1D3244;" d="M238.717,322.749c-4.791,3.723-9.673,7.21-14.519,10.731c-4.844,3.518-9.723,6.95-14.462,10.534
						c-4.726,3.592-9.392,7.257-13.663,11.225c-2.135,1.976-4.181,4.032-5.945,6.207c-1.741,2.161-3.19,4.55-3.521,6.727
						l-3.999-0.111c0.05-1.91,0.523-3.693,1.247-5.218c0.324-0.807,0.763-1.482,1.159-2.222c0.427-0.7,0.893-1.353,1.342-2.032
						c1.876-2.607,4.034-4.869,6.257-7.017c2.247-2.122,4.552-4.152,6.967-6.019c2.4-1.887,4.83-3.72,7.34-5.427
						c2.501-1.72,5.002-3.43,7.589-5.004c1.284-0.802,2.576-1.586,3.874-2.361l3.946-2.236
						C227.636,327.634,233.043,324.918,238.717,322.749z"/>
				</g>
				<g>
					<path style="fill:#1D3244;" d="M137.373,196.084l-17.342-7.76l2.802-1.578l0.032,0.438c0.014,0.187,0.016,0.368,0.068,0.58
						c0.098,0.41,0.109,0.811,0.263,1.226c0.131,0.414,0.266,0.824,0.383,1.24c0.148,0.411,0.357,0.814,0.529,1.221
						c0.199,0.401,0.317,0.826,0.577,1.208l0.712,1.166c0.248,0.383,0.443,0.791,0.73,1.155l0.867,1.089
						c1.062,1.513,2.515,2.761,3.805,4.126c0.657,0.674,1.458,1.226,2.178,1.846c0.744,0.6,1.467,1.221,2.225,1.805l4.799,3.243
						l5.094,2.857l1.27,0.722l1.328,0.629l2.661,1.251c1.786,0.81,3.515,1.74,5.378,2.4c3.677,1.415,7.279,3.033,11.076,4.178
						c1.88,0.618,3.756,1.249,5.628,1.9c1.857,0.699,3.797,1.141,5.69,1.744l5.708,1.731l2.85,0.901l2.884,0.783
						c3.843,1.066,7.683,2.184,11.511,3.441c-3.994-0.37-7.977-0.88-11.956-1.441l-2.983-0.437l-2.955-0.586l-5.901-1.246
						c-3.949-0.781-7.811-1.95-11.68-3.088c-3.899-1.037-7.665-2.552-11.484-3.896c-7.501-3.049-14.989-6.415-21.658-11.397
						c-0.819-0.639-1.61-1.324-2.415-1.985c-0.787-0.687-1.634-1.29-2.37-2.048c-1.463-1.527-2.99-2.973-4.207-4.763l-0.959-1.286
						c-0.316-0.431-0.556-0.932-0.836-1.396l-0.806-1.418c-0.286-0.459-0.448-1.009-0.675-1.509
						c-0.204-0.517-0.436-1.015-0.611-1.547l-0.43-1.644c-0.158-0.537-0.182-1.149-0.271-1.718c-0.047-0.28-0.049-0.599-0.054-0.911
						l-0.006-0.468c-0.001-0.157,0.023-0.397,0.04-0.59l0.247-2.722l2.554,1.143l17.342,7.76L137.373,196.084z"/>
				</g>
				<g>
					<path style="fill:#1D3244;" d="M134.584,208.384l-7.972-0.824l2.147-1.511l0-0.001c0.02-0.08,0.012-0.03,0.012-0.012
						l-0.004,0.089c-0.003,0.068-0.006,0.141,0.001,0.228c-0.003,0.16,0.029,0.345,0.045,0.522c0.058,0.366,0.155,0.744,0.279,1.124
						c0.253,0.761,0.668,1.516,1.126,2.252c0.971,1.462,2.286,2.795,3.745,3.995c2.975,2.363,6.432,4.309,10.066,5.918
						c3.62,1.647,7.426,2.981,11.278,4.177c3.839,1.244,7.781,2.228,11.725,3.19c7.91,1.886,15.957,3.291,24.03,4.619
						c8.077,1.329,16.191,2.521,24.319,3.98c-8.251,0.196-16.496-0.142-24.717-0.879c-8.22-0.76-16.404-1.991-24.538-3.637
						c-8.109-1.752-16.204-3.885-23.951-7.33c-3.853-1.745-7.642-3.824-11.022-6.682c-1.673-1.447-3.253-3.09-4.511-5.084
						c-0.604-1.016-1.168-2.085-1.505-3.298c-0.169-0.604-0.299-1.23-0.368-1.883c-0.021-0.335-0.051-0.66-0.036-1.015
						c0-0.169,0.011-0.352,0.031-0.54c0.008-0.092,0.016-0.182,0.035-0.294c0.018-0.109,0.026-0.187,0.074-0.392l0.001-0.002
						l0.39-1.693l1.757,0.182l7.972,0.824L134.584,208.384z"/>
				</g>
				<g>
					<path style="fill:#1D3244;" d="M221.868,331.159c0.781-3.212,1.873-6.111,3.052-9.063c1.194-2.924,2.563-5.773,4.078-8.541
						c1.511-2.77,3.158-5.467,4.966-8.054c1.789-2.6,3.723-5.098,5.78-7.49c2.065-2.386,4.261-4.653,6.572-6.794
						c2.328-2.123,4.779-4.105,7.332-5.932c5.132-3.617,10.711-6.574,16.566-8.628c-5.295,3.236-10.321,6.744-14.891,10.76
						c-2.311,1.975-4.459,4.12-6.577,6.276c-2.064,2.214-4.05,4.491-5.935,6.85c-3.702,4.772-7.037,9.82-9.888,15.141
						c-1.429,2.657-2.756,5.368-3.97,8.127c-1.224,2.73-2.322,5.617-3.212,8.348L221.868,331.159z"/>
				</g>
				<g>
					<path style="fill:#1D3244;" d="M141.226,223.39l-12.406-0.542l1.986-2.627l0,0c0.126,0.303,0.352,0.788,0.567,1.189
						c0.227,0.421,0.462,0.838,0.729,1.247c0.516,0.819,1.09,1.614,1.704,2.375c1.244,1.51,2.631,2.917,4.199,4.112
						c0.769,0.613,1.604,1.147,2.422,1.693c0.875,0.466,1.687,1.03,2.604,1.422c0.903,0.413,1.774,0.889,2.728,1.198
						c0.938,0.341,1.857,0.728,2.839,0.958c1.921,0.594,3.9,0.931,5.916,1.287l3.103,0.416c1.038,0.128,2.089,0.221,3.132,0.333
						c2.086,0.231,4.201,0.36,6.301,0.556c2.112,0.136,4.218,0.311,6.338,0.413c4.231,0.24,8.476,0.433,12.723,0.614l12.759,0.472
						c2.129,0.074,4.258,0.179,6.388,0.309c2.13,0.105,4.262,0.266,6.392,0.427c4.258,0.357,8.54,0.746,12.764,1.58
						c-8.551,0.611-17.047,1.129-25.589,1.244c-4.267,0.09-8.537,0.045-12.811,0.025c-4.275-0.038-8.552-0.089-12.835-0.273
						c-4.282-0.169-8.573-0.367-12.872-0.788c-1.076-0.11-2.15-0.199-3.227-0.325l-3.236-0.415c-2.182-0.357-4.412-0.755-6.563-1.44
						c-4.313-1.293-8.514-3.305-12.044-6.254c-1.787-1.439-3.376-3.122-4.79-4.938c-0.705-0.911-1.35-1.871-1.915-2.888
						c-0.292-0.5-0.557-1.023-0.81-1.554c-0.256-0.554-0.472-1.04-0.711-1.739l0,0l-0.968-2.756l2.954,0.129l12.406,0.542
						L141.226,223.39z"/>
				</g>
				<g>
					<path style="fill:#1D3244;" d="M293.512,129.524l-10.988-26.791l3.296,0.623l0,0c-0.136,0.201-0.428,0.654-0.633,1.029
						c-0.218,0.396-0.429,0.82-0.641,1.23l-0.564,1.304l-0.487,1.355c-0.18,0.442-0.279,0.925-0.418,1.388
						c-0.125,0.469-0.288,0.924-0.385,1.404c-0.175,0.967-0.429,1.907-0.549,2.891c-0.604,3.898-0.697,7.937-0.384,11.987
						c0.039,2.032,0.456,4.046,0.624,6.091l0.991,6.11c0.433,2.027,0.798,4.083,1.2,6.146c0.47,2.042,0.908,4.107,1.245,6.231
						c-1.086-1.833-2.07-3.726-3.023-5.641c-0.9-1.934-1.65-3.936-2.434-5.934c-0.665-2.035-1.299-4.094-1.819-6.185
						c-0.227-1.055-0.455-2.113-0.653-3.177c-0.096-0.533-0.22-1.06-0.293-1.598l-0.199-1.619
						c-0.612-4.304-0.632-8.754,0.068-13.164c0.057-0.553,0.178-1.102,0.313-1.649l0.383-1.641c0.316-1.084,0.63-2.172,1.07-3.226
						l0.675-1.577l0.812-1.534c0.317-0.498,0.606-1.001,0.963-1.485c0.375-0.501,0.681-0.916,1.247-1.5l0.001-0.001l2.095-2.308
						l1.202,2.93l10.988,26.791L293.512,129.524z"/>
				</g>
				<g>
					<path style="fill:#1D3244;" d="M278.774,133.545l-11.546-18.353l3.56-0.349v0c-0.537,1.884-1.007,4-1.399,6.033
						c-0.374,2.059-0.716,4.127-0.922,6.21c-0.463,4.158-0.572,8.35-0.288,12.516c0.267,4.173,1.052,8.284,2.098,12.363
						c1.061,4.087,2.582,8.062,4.273,12.151c-3.12-3.133-5.589-6.947-7.375-11.064c-0.927-2.051-1.606-4.203-2.194-6.379
						c-0.538-2.188-0.938-4.409-1.232-6.646c-0.53-4.479-0.514-9.014,0.004-13.481c0.287-2.23,0.657-4.45,1.203-6.633
						c0.533-2.206,1.171-4.298,2.098-6.502l0,0l1.414-3.761l2.146,3.412l11.546,18.353L278.774,133.545z"/>
				</g>
				<g>
					<path style="fill:#1D3244;" d="M154.79,240.082l-17.594,0.465l1.857-2.592l0,0l0.148,0.273c0.074,0.125,0.111,0.243,0.21,0.376
						c0.178,0.259,0.335,0.523,0.521,0.78c0.434,0.496,0.787,1.031,1.294,1.491l0.706,0.717c0.234,0.24,0.528,0.435,0.788,0.655
						c0.546,0.419,1.034,0.893,1.653,1.238l1.766,1.123l1.906,0.943l0.946,0.483c0.318,0.157,0.667,0.264,0.998,0.399l2.012,0.773
						c5.451,1.931,11.333,2.814,17.23,3.441l4.465,0.249l2.235,0.14c0.746,0.043,1.497,0.01,2.245,0.019l4.499-0.004l2.253,0.001
						l2.255-0.095c1.503-0.077,3.012-0.097,4.523-0.127c1.51-0.037,3.029-0.01,4.539-0.118c3.031-0.113,6.075-0.187,9.169-0.06
						c-2.933,0.92-5.915,1.639-8.91,2.319c-1.496,0.348-3.007,0.612-4.529,0.804c-1.518,0.215-3.039,0.439-4.565,0.606
						c-6.106,0.676-12.287,0.799-18.486,0.562c-6.19-0.459-12.443-1.28-18.469-3.438l-2.236-0.88
						c-0.37-0.155-0.75-0.278-1.112-0.459l-1.082-0.558l-2.147-1.144l-2.04-1.387c-0.696-0.429-1.303-1.025-1.941-1.557
						c-0.31-0.281-0.642-0.527-0.932-0.837l-0.866-0.934c-0.6-0.59-1.085-1.333-1.589-2.033c-0.473-0.796-0.882-1.435-1.276-2.575
						l0,0l-0.879-2.52l2.737-0.072l17.594-0.465L154.79,240.082z"/>
				</g>
				<g>
					<path style="fill:#1D3244;" d="M157.911,253.127l-8.633,1.903l1.232-3.064l0.478,0.526l0.615,0.589
						c0.422,0.385,0.893,0.752,1.335,1.13l1.454,1.036l1.544,0.936c0.498,0.334,1.069,0.568,1.607,0.845
						c0.553,0.255,1.071,0.567,1.647,0.784l1.706,0.682l0.852,0.343l0.887,0.267c2.34,0.775,4.771,1.332,7.229,1.773
						c1.244,0.16,2.483,0.357,3.726,0.537c1.251,0.135,2.517,0.179,3.777,0.275l1.893,0.126l1.906,0.003l3.82,0.01
						c1.275-0.049,2.55-0.167,3.828-0.241c1.278-0.083,2.565-0.086,3.842-0.235c1.278-0.141,2.564-0.242,3.849-0.365
						c1.284-0.132,2.593-0.138,3.876-0.322c2.582-0.282,5.181-0.542,7.848-0.624c-2.422,1.056-4.912,1.934-7.419,2.79
						c-2.527,0.761-5.116,1.313-7.702,1.895c-2.608,0.455-5.251,0.769-7.896,1.054l-4,0.204l-2.004,0.1l-2.013-0.065
						c-5.363-0.029-10.795-0.841-16.016-2.551l-0.981-0.311l-0.959-0.395l-1.915-0.794c-0.644-0.249-1.241-0.628-1.861-0.941
						c-0.61-0.339-1.24-0.628-1.818-1.035c-0.587-0.386-1.181-0.759-1.758-1.159l-1.665-1.324c-0.528-0.491-1.062-0.96-1.558-1.499
						c-0.51-0.561-0.946-1.035-1.481-1.823l-1.65-2.429l2.882-0.635l8.633-1.903L157.911,253.127z"/>
				</g>
				<g>
					<path style="fill:#1D3244;" d="M172.496,265.307l-10.768,4.525l0.661-3.236l0,0c0.216,0.174,0.73,0.531,1.145,0.789
						c0.471,0.254,0.918,0.542,1.412,0.778c0.503,0.227,0.979,0.488,1.499,0.689l1.555,0.616c2.137,0.697,4.326,1.328,6.605,1.672
						c1.134,0.188,2.262,0.41,3.424,0.489c1.156,0.096,2.299,0.286,3.471,0.285l3.501,0.151l3.524-0.075
						c1.176,0.008,2.354-0.074,3.533-0.167l3.541-0.25c2.349-0.329,4.721-0.527,7.086-0.847l3.553-0.504
						c1.189-0.156,2.39-0.267,3.577-0.462c2.378-0.373,4.776-0.701,7.229-0.905c-2.209,1.04-4.473,1.956-6.757,2.827
						c-2.297,0.826-4.654,1.467-7.007,2.14c-1.174,0.354-2.389,0.522-3.585,0.793c-1.2,0.253-2.404,0.487-3.611,0.704l-3.661,0.474
						c-1.221,0.162-2.443,0.332-3.682,0.377c-4.923,0.428-9.947,0.247-14.926-0.583c-2.489-0.406-4.96-1.104-7.37-2.006
						l-1.787-0.774c-0.592-0.267-1.164-0.611-1.744-0.915c-0.577-0.316-1.137-0.701-1.693-1.076
						c-0.571-0.436-1.046-0.774-1.704-1.436l0,0l-2.12-2.068l2.781-1.168l10.768-4.525L172.496,265.307z"/>
				</g>
				<g>
					<path style="fill:#1D3244;" d="M182.016,275.631l-7.727,6.726l-0.235-3.193l0,0c0.302,0.161,0.795,0.398,1.229,0.582
						c0.438,0.202,0.922,0.368,1.376,0.561c0.944,0.341,1.895,0.676,2.877,0.951c1.946,0.587,3.962,0.998,5.986,1.363
						c4.065,0.682,8.232,0.906,12.407,0.867c4.188,0.036,8.368-0.509,12.57-0.984c2.098-0.271,4.195-0.61,6.327-0.84
						c2.111-0.329,4.236-0.649,6.43-0.816c-1.935,1-3.936,1.858-5.956,2.686c-2.059,0.681-4.13,1.383-6.244,1.918
						c-2.134,0.441-4.253,1.011-6.433,1.248l-3.257,0.46c-1.093,0.104-2.191,0.181-3.288,0.258
						c-4.392,0.262-8.842,0.174-13.252-0.531c-2.199-0.385-4.396-0.829-6.544-1.537c-1.081-0.317-2.141-0.737-3.196-1.17
						c-0.526-0.242-1.05-0.45-1.569-0.733c-0.535-0.275-1.001-0.521-1.618-0.915l0,0l-2.293-1.401l2.059-1.792l7.727-6.726
						L182.016,275.631z"/>
				</g>
				<g>
					<path style="fill:#1D3244;" d="M204.023,286.707l-7.539,6.099l-0.128-3.205v0c0.243,0.127,0.67,0.344,1.043,0.501
						c0.375,0.178,0.791,0.323,1.186,0.488c0.391,0.172,0.822,0.285,1.23,0.43c0.409,0.146,0.828,0.275,1.255,0.383
						c0.425,0.112,0.843,0.245,1.273,0.342l1.298,0.27c0.854,0.222,1.751,0.282,2.624,0.43c3.531,0.449,7.149,0.38,10.752-0.01
						c3.627-0.315,7.177-1.289,10.761-2.2c1.784-0.493,3.559-1.062,5.396-1.516c1.795-0.564,3.612-1.115,5.542-1.513
						c-1.478,1.258-3.065,2.37-4.68,3.457c-1.689,0.929-3.39,1.885-5.174,2.658c-1.821,0.676-3.609,1.483-5.521,1.931l-2.837,0.783
						c-0.964,0.195-1.934,0.377-2.906,0.549c-3.894,0.632-7.911,0.837-11.904,0.322c-1.99-0.281-3.981-0.65-5.91-1.312
						c-0.974-0.282-1.919-0.691-2.86-1.105c-0.468-0.226-0.936-0.427-1.394-0.702c-0.475-0.264-0.88-0.502-1.435-0.885l0,0
						l-2.262-1.478l2.134-1.727l7.539-6.099L204.023,286.707z"/>
				</g>
				<path style="fill:none;stroke:#1D3244;stroke-width:4;stroke-miterlimit:10;" d="M226.901,292.277l-4.883,7.354
					c0,0,10.537,5.325,20.698-2.051"/>
				<g>
					<path style="fill:#1D3244;" d="M238.717,342.832c3.01,0.968,5.826,1.81,8.636,2.444c2.792,0.646,5.585,1.056,8.335,0.875
						c2.745-0.145,5.4-0.805,7.904-1.886c2.493-1.117,4.827-2.641,7.061-4.418l0,0l0.461-0.407l0.522-0.1
						c6.762-1.301,13.376-2.184,19.59-4.306c6.21-2.068,11.946-5.32,16.839-9.651c2.453-2.153,4.712-4.541,6.806-7.079
						c2.059-2.57,3.968-5.272,5.729-8.082c3.495-5.64,6.405-11.671,8.95-17.857c2.574-6.177,4.565-12.579,6.892-19.035
						c2.327-6.415,4.836-12.807,8.14-18.942c1.66-3.058,3.566-6.045,5.862-8.773c1.138-1.37,2.393-2.649,3.704-3.851
						c0.667-0.588,1.327-1.184,2.024-1.724c0.658-0.531,1.43-1.156,2.275-1.645c3.35-2.031,7.248-2.66,10.876-2.521
						c1.828,0.068,3.625,0.308,5.383,0.684c1.778,0.388,3.434,0.848,5.226,1.557l-2.772,1.744c0.043-1.156-0.095-2.3-0.478-3.387
						c-0.365-1.092-0.958-2.128-1.699-3.085c-0.744-0.956-1.638-1.835-2.629-2.615c-0.495-0.391-1.013-0.759-1.546-1.101
						c-0.517-0.329-1.124-0.676-1.581-0.894l-0.698-0.333l-0.354-0.805l0,0c-0.294-0.675-0.756-1.534-1.215-2.266
						c-0.474-0.753-0.992-1.479-1.54-2.173c-1.106-1.382-2.385-2.591-3.78-3.587c-1.396-0.998-2.94-1.732-4.56-2.202l-0.61-0.169
						l-0.674-0.162c-0.449-0.102-0.898-0.205-1.346-0.287c-0.896-0.177-1.79-0.309-2.681-0.395
						c-3.561-0.354-7.077,0.084-10.38,1.395c-3.294,1.321-6.377,3.356-9.188,5.79c-2.819,2.439-5.37,5.235-7.819,8.181
						c-2.58,3.079-5.344,6.013-8.378,8.656c-3.039,2.631-6.358,4.962-9.946,6.775c-3.573,1.8-7.382,3.271-11.352,3.672
						c3.583-1.667,6.83-3.754,9.945-5.975c3.094-2.25,6.018-4.692,8.743-7.341c2.73-2.643,5.277-5.47,7.607-8.477
						c1.222-1.563,2.479-3.15,3.83-4.649c1.36-1.496,2.788-2.946,4.313-4.315c3.041-2.73,6.504-5.182,10.486-6.766
						c3.962-1.602,8.425-2.194,12.636-1.684c1.053,0.115,2.094,0.281,3.113,0.495c0.512,0.101,1.015,0.222,1.518,0.342l0.75,0.19
						l0.799,0.234c2.116,0.674,4.122,1.705,5.873,3.029c1.763,1.313,3.264,2.907,4.535,4.627c0.634,0.863,1.206,1.764,1.715,2.7
						c0.516,0.961,0.95,1.846,1.367,2.993l0,0.001l-1.052-1.137c1.519,0.739,2.717,1.536,3.952,2.499
						c1.208,0.952,2.331,2.046,3.307,3.3c0.971,1.254,1.798,2.679,2.324,4.245c0.547,1.557,0.758,3.242,0.688,4.881l-0.119,2.795
						l-2.654-1.051c-1.359-0.538-2.977-1.006-4.509-1.332c-1.556-0.334-3.13-0.541-4.69-0.599c-3.112-0.12-6.188,0.438-8.665,1.946
						c-0.625,0.359-1.175,0.805-1.835,1.337c-0.644,0.498-1.239,1.039-1.845,1.571c-1.185,1.088-2.31,2.232-3.337,3.47
						c-2.07,2.46-3.836,5.212-5.406,8.107c-3.13,5.806-5.602,12.07-7.892,18.389c-1.165,3.17-2.189,6.338-3.334,9.575
						c-1.11,3.236-2.313,6.447-3.619,9.619c-2.611,6.343-5.608,12.565-9.255,18.452c-1.839,2.935-3.844,5.776-6.025,8.495
						c-2.218,2.691-4.629,5.243-7.27,7.56c-5.258,4.663-11.547,8.225-18.2,10.434c-6.649,2.265-13.553,3.174-20.084,4.438
						l0.983-0.508h0c-2.181,2.373-4.876,4.369-7.898,5.778c-1.526,0.675-3.122,1.199-4.756,1.565
						c-1.642,0.329-3.312,0.481-4.971,0.485c-1.661,0.001-3.302-0.234-4.9-0.556c-1.599-0.329-3.157-0.801-4.629-1.452
						C243.322,347.257,240.633,345.399,238.717,342.832z"/>
				</g>
				<path style="fill:none;stroke:#1D3244;stroke-width:4;stroke-miterlimit:10;" d="M247.01,346.346c0,0-3.019,5.733-12.339,8.55
					c0,0-7.044,30.768-21.095,32.719"/>
				<g>
					<path style="fill:#1D3244;" d="M217.983,369.418c0.713,3.144,0.675,6.382,0.256,9.557c-0.427,3.183-1.369,6.297-2.588,9.33
						c-0.649,1.502-1.393,2.975-2.243,4.4c-0.868,1.413-1.867,2.763-2.974,4.027c-2.227,2.517-5.014,4.608-8.11,5.955l-0.001,0
						l-4.579,2.035l1.786-4.427l9.464-23.466l-5.647,24.664l-2.793-2.393l0,0c2.456-1.437,4.676-3.19,6.566-5.324
						c1.9-2.117,3.492-4.56,4.822-7.179c1.349-2.619,2.36-5.433,3.296-8.306C216.182,375.412,217.051,372.479,217.983,369.418z"/>
				</g>
				<g>
					<path style="fill:#1D3244;" d="M213.576,363.153c-1.576,2.877-3.288,5.647-5.034,8.391c-1.75,2.74-3.551,5.44-5.407,8.097
						c-1.827,2.68-3.751,5.284-5.71,7.859c-1.996,2.547-4.022,5.07-6.261,7.427l0.4-0.906l0,0.001l-1.878,11.269l-2.686-2.197
						l0.001,0c1.45-0.525,2.999-1.216,4.47-1.906c1.482-0.706,2.925-1.492,4.315-2.353c2.76-1.737,5.369-3.74,7.348-6.281
						l1.61,1.016c-0.842,1.602-1.937,3.052-3.158,4.359c-1.23,1.298-2.568,2.48-3.988,3.538c-1.417,1.061-2.89,2.038-4.409,2.933
						c-1.531,0.909-3.052,1.695-4.762,2.431l-0.001,0.001l-3.262,1.257l0.576-3.454l1.878-11.269v-0.001l0.025-0.324l0.375-0.583
						c1.759-2.733,3.73-5.3,5.731-7.842c2.038-2.515,4.112-5,6.282-7.41c2.142-2.432,4.338-4.822,6.585-7.172
						C208.869,367.685,211.155,365.366,213.576,363.153z"/>
				</g>
				<g>
					<path style="fill:#1D3244;" d="M214.106,356.269c-2.164,3.027-4.529,5.852-6.925,8.646c-2.413,2.777-4.903,5.476-7.432,8.136
						c-2.51,2.679-5.056,5.322-7.608,7.959c-2.563,2.626-5.139,5.239-7.748,7.818l0.298-0.369c-0.83,1.301-1.693,2.581-2.538,3.872
						c-0.843,1.292-1.699,2.577-2.58,3.845l-1.071-2.98l0,0c0.72,0.213,1.702,0.396,2.571,0.479
						c0.896,0.087,1.793,0.102,2.663,0.021c1.744-0.153,3.371-0.687,4.689-1.63l2.332,3.25c-1.992,1.431-4.371,2.167-6.662,2.364
						c-1.151,0.106-2.292,0.085-3.416-0.025c-1.148-0.122-2.175-0.29-3.403-0.652l-0.002-0.001l-2.394-0.722l1.322-2.258
						c0.78-1.333,1.586-2.649,2.404-3.957c0.817-1.309,1.615-2.63,2.447-3.93l0.127-0.199l0.171-0.17
						c2.596-2.592,5.226-5.151,7.869-7.696c2.654-2.534,5.313-5.063,8.009-7.555c2.676-2.511,5.393-4.983,8.185-7.378
						C208.225,360.76,211.065,358.414,214.106,356.269z"/>
				</g>
				<g>
					<path style="fill:#1D3244;" d="M205.233,358.144c-2.012,2.748-4.217,5.288-6.474,7.772c-2.253,2.488-4.62,4.854-6.974,7.234
						c-4.726,4.74-9.551,9.374-14.595,13.771l-0.53-3.284l-0.001,0c0.467,0.201,1.171,0.426,1.777,0.56
						c0.63,0.144,1.262,0.23,1.875,0.251c1.23,0.043,2.355-0.199,3.247-0.748l2.095,3.408c-1.704,1.051-3.685,1.405-5.475,1.338
						c-0.903-0.031-1.779-0.155-2.628-0.348c-0.871-0.205-1.624-0.424-2.551-0.822l-0.003-0.001l-2.672-1.165l2.142-2.119
						c4.757-4.707,9.734-9.177,14.809-13.54c2.546-2.172,5.081-4.358,7.728-6.422C199.649,361.96,202.344,359.948,205.233,358.144z"
						/>
				</g>
				<g>
					<path style="fill:#1D3244;" d="M198.477,357.847c-1.503,1.901-3.176,3.569-4.887,5.185c-1.708,1.62-3.518,3.1-5.322,4.587
						c-3.628,2.949-7.325,5.802-11.261,8.327l0.174-3.092l-0.001,0c0.172,0.149,0.534,0.422,0.834,0.61
						c0.318,0.204,0.649,0.39,0.988,0.554c0.678,0.327,1.382,0.568,2.086,0.696c1.411,0.267,2.805,0.058,4.111-0.571l1.749,3.597
						c-0.997,0.478-2.085,0.831-3.211,0.987c-1.125,0.158-2.274,0.124-3.37-0.079c-1.098-0.201-2.139-0.562-3.109-1.03
						c-0.485-0.235-0.953-0.498-1.406-0.788c-0.47-0.306-0.852-0.571-1.37-1.023l-0.003-0.002l-1.746-1.514l1.92-1.578
						c3.613-2.969,7.465-5.61,11.386-8.156c1.97-1.26,3.935-2.527,6.001-3.654C194.104,359.773,196.206,358.694,198.477,357.847z"/>
				</g>
				<path style="fill:#1D3244;" d="M354.33,225.221c0,1.41-1.143,2.553-2.553,2.553c-1.41,0-2.553-1.143-2.553-2.553
					c0-1.41,1.143-2.553,2.553-2.553C353.187,222.668,354.33,223.811,354.33,225.221z"/>
				<g>
					<path style="fill:#1D3244;" d="M264.961,143.131l-11.304-8.371l3.085-0.968v0c-0.186,0.782-0.362,1.782-0.511,2.697
						c-0.144,0.938-0.275,1.884-0.375,2.835c-0.197,1.904-0.339,3.821-0.375,5.746c-0.107,3.85,0.134,7.717,0.597,11.572
						c0.492,3.854,1.272,7.679,2.194,11.508c0.915,3.836,2.054,7.639,3.168,11.557c-2.468-3.243-4.418-6.847-6.029-10.609
						c-1.627-3.761-2.735-7.744-3.529-11.79c-0.767-4.054-1.142-8.202-1.034-12.358c0.062-2.077,0.234-4.157,0.563-6.221
						c0.163-1.033,0.351-2.063,0.605-3.087c0.248-1.046,0.522-2,0.936-3.128l0,0l0.862-2.614l2.223,1.646l11.304,8.37
						L264.961,143.131z"/>
				</g>
				<g>
					<path style="fill:#1D3244;" d="M254.377,166.597l-11.306-9.148l3.237-1.267v0c-0.162,2.721-0.254,5.63-0.231,8.449
						c0.033,2.839,0.158,5.678,0.477,8.498c0.314,2.82,0.788,5.626,1.495,8.397c0.704,2.776,1.661,5.497,2.877,8.224
						c-2.117-2.105-3.826-4.66-5.132-7.395c-1.319-2.736-2.268-5.65-2.915-8.615c-0.645-2.968-1.024-5.989-1.116-9.016
						c-0.091-3.045,0.019-6.016,0.587-9.118l0,0l0.491-3.489l2.746,2.222l11.306,9.149L254.377,166.597z"/>
				</g>
				<g>
					<path style="fill:#1D3244;" d="M246.472,183.505l-6.704-1.871l2.528-1.727h0c0.017,1.541,0.128,3.281,0.251,4.926
						c0.142,1.666,0.318,3.332,0.554,4.988c0.459,3.315,1.12,6.6,1.99,9.832c0.453,1.61,0.918,3.22,1.468,4.805
						c0.551,1.584,1.193,3.132,1.798,4.709c1.237,3.147,2.57,6.267,3.756,9.728c-2.995-2.103-5.35-4.917-7.232-7.992
						c-0.936-1.544-1.72-3.173-2.442-4.827c-0.701-1.662-1.401-3.334-1.923-5.065c-1.104-3.442-1.878-6.99-2.274-10.582
						c-0.194-1.796-0.317-3.601-0.31-5.412c-0.003-1.831,0.089-3.578,0.384-5.507v0l0.224-2.37l2.304,0.643l6.703,1.871
						L246.472,183.505z"/>
				</g>
				<path style="fill:none;stroke:#1D3244;stroke-width:4;stroke-miterlimit:10;" d="M245.365,207.005l-6.648-4.685
					c0,0-5.238,16.363,3.999,29.222"/>
			</g>
			<g>
				<path style="fill:#1D3244;" d="M294.551,266.116c-5.302,1.719-11.175,1.6-16.654,0.407c-1.384-0.277-2.733-0.673-4.092-1.044
					c-1.332-0.445-2.667-0.888-3.968-1.412c-2.623-0.999-5.146-2.225-7.61-3.535c-4.935-2.618-9.567-5.737-13.944-9.145
					c-4.351-3.439-8.501-7.135-12.177-11.271c4.341,3.413,8.773,6.651,13.324,9.687c4.543,3.044,9.214,5.868,14.041,8.346
					c4.832,2.464,9.834,4.558,15.004,6.043C283.645,265.722,289.009,266.436,294.551,266.116z"/>
			</g>
			<g>
				<path style="fill:#1D3244;" d="M224.413,233.375c0.834,0.547,1.582,1.171,2.394,1.708c0.825,0.519,1.597,1.098,2.45,1.55
					c1.641,1.005,3.394,1.789,5.169,2.479l1.347,0.485l1.376,0.395c0.919,0.26,1.854,0.462,2.798,0.638
					c1.89,0.339,3.815,0.539,5.79,0.522c-1.9,0.585-3.934,0.691-5.924,0.534c-1.995-0.163-3.983-0.587-5.858-1.317
					c-1.86-0.749-3.68-1.643-5.266-2.869c-0.837-0.548-1.547-1.263-2.291-1.915C225.682,234.895,225.043,234.129,224.413,233.375z"
					/>
			</g>
		</g>
	</g>
</g>
</svg>
