<?xml version="1.0" encoding="utf-8"?>
<!-- Generator: Adobe Illustrator 27.5.0, SVG Export Plug-In . SVG Version: 6.00 Build 0)  -->
<svg version="1.1" xmlns="http://www.w3.org/2000/svg" xmlns:xlink="http://www.w3.org/1999/xlink" x="0px" y="0px"
	 viewBox="0 0 500 500" style="enable-background:new 0 0 500 500;" xml:space="preserve">
<g id="BACKGROUND">
	<g>
		<rect y="-0.004" style="fill:#FFFFFF;" width="500" height="500"/>
	</g>
</g>
<g id="OBJECTS">
	<g>
		<path style="fill:#ADBEC4;" d="M110.787,411.335H55.685c-0.968,0-1.753-0.785-1.753-1.753v-0.963c0-0.968,0.785-1.753,1.753-1.753
			h55.101c0.968,0,1.753,0.785,1.753,1.753v0.963C112.54,410.55,111.755,411.335,110.787,411.335z"/>
		<path style="fill:#ADBEC4;" d="M459.941,411.335h-15.076c-0.968,0-1.753-0.785-1.753-1.753v-0.963
			c0-0.968,0.785-1.753,1.753-1.753h15.076c0.968,0,1.753,0.785,1.753,1.753v0.963C461.693,410.55,460.909,411.335,459.941,411.335z
			"/>
		<path style="fill:#ADBEC4;" d="M214.482,411.335h-55.102c-0.968,0-1.753-0.785-1.753-1.753v-0.963
			c0-0.968,0.785-1.753,1.753-1.753h55.102c0.968,0,1.753,0.785,1.753,1.753v0.963C216.235,410.55,215.451,411.335,214.482,411.335z
			"/>
		<path style="fill:#ADBEC4;" d="M295.39,411.335h-55.101c-0.968,0-1.753-0.785-1.753-1.753v-0.963c0-0.968,0.785-1.753,1.753-1.753
			h55.101c0.968,0,1.753,0.785,1.753,1.753v0.963C297.143,410.55,296.358,411.335,295.39,411.335z"/>
		<path style="fill:#ADBEC4;" d="M394.479,411.335h-75.114c-0.968,0-1.753-0.785-1.753-1.753v-0.963
			c0-0.968,0.785-1.753,1.753-1.753h75.114c0.968,0,1.753,0.785,1.753,1.753v0.963C396.232,410.55,395.447,411.335,394.479,411.335z
			"/>
	</g>
	<g>
		<path style="fill:#0E3944;" d="M129.256,161.062c0,0-5.82-3.959-14.332-0.91c-8.512,3.05-10.424,14.513-8.327,23.816
			c2.097,9.303-9.622,41.065-9.622,41.065s6.091,8.566,27.378,5.288c0,0,15.873-28.846,14.695-49.555
			S129.256,161.062,129.256,161.062z"/>
		<path style="fill:#EF6E4B;" d="M135.976,196.846c8-2.558,12.896,4.103,17.48,16.501c4.584,12.398,6.126,13.641,6.126,13.641
			l17.693,11.368l-1.471,6.626c0,0-16.839-6.593-20.91-10.787c-4.071-4.193-15.783-25.436-15.783-25.436L135.976,196.846z"/>
		<path style="fill:#FF8B66;" d="M96.984,276.941c0,0-3.471,17.579-2.899,44.04c0,0-13.678,20.17-2.39,77.718h5.921
			c0,0,4.837-48.963,8.538-62.23c3.701-13.267,17.367-17.338,18.107-57.678L96.984,276.941z"/>
		<path style="fill:#FF8B66;" d="M69.922,328.631c-3.441-11.339-12.284-30.33-34.969-56.072c0,0-1.353-0.697-3.182,0.421
			c-1.931,1.18-1.931,2.566-1.931,2.566s11.375,24.79,18.629,42.953c2.442,6.115,8.35,10.132,14.934,10.132H69.922z"/>
		<path style="fill:#164353;" d="M111.224,350.556c0,0,0.078,8.46-5.473,8.604c-7.838,0.211-8.127-8.327-17.009-8.049
			c-8.882,0.277-27.201,2.498-33.03-11.38c-3.009-7.172,1.11-16.376-8.604-23.315c-9.715-6.939-4.996-14.711,0-18.874
			c4.996-4.152-2.154-8.704,3.053-10.825c1.243-0.5,2.465-0.444,3.597-0.067c0.666,0.233,1.288,0.555,1.887,0.955
			c2.753,1.832,4.685,5.018,4.685,5.018c14.711-40.291,40.902-45.609,40.902-45.609l25.902,8.938
			C127.755,318.637,111.224,350.556,111.224,350.556z"/>
		<path style="fill:#CFD8DC;" d="M135.976,196.846c0,0-6.043,2.039-14.639,0.734c-8.596-1.305-11.39-6.702-17.432-3.228
			c-9.071,5.215-4.826,23.164-2.548,32.497c0.849,3.48,1.925,12.622-0.123,20.167c0,0,12.078,9.398,25.902,8.931l7.542-16.403
			C134.677,239.543,151.079,219.918,135.976,196.846z"/>
		<path style="fill:#EF6E4B;" d="M120.628,181.79c0,0,1.005,8.491-2.136,16.216c0,0,4.485,6.621,8.765,2.264
			c0,0,0.391-7.782,5.199-16.586C135.675,177.788,120.628,181.79,120.628,181.79z"/>
		<g>
			<path style="fill:#FF8B66;" d="M113.755,182.079c0,0-3.783-2.393-3.356,1.299c0.495,4.278,4.668,5.112,5.112,3.616
				C115.955,185.499,113.755,182.079,113.755,182.079z"/>
			<path style="fill:#FF8B66;" d="M135.457,177.448c0,0,2.401-3.778,3.59-0.256c1.377,4.081-2.042,6.614-3.082,5.451
				C134.926,181.48,135.457,177.448,135.457,177.448z"/>
			<path style="fill:#FF8B66;" d="M127.646,194.866c-6.861,1.536-11.737-2.078-14.747-15.52c-1.553-6.934,1.023-11.977,8.708-13.697
				c7.686-1.721,11.874,1.807,13.427,8.741C138.268,188.833,134.734,193.279,127.646,194.866z"/>
			<path style="fill:#DB614D;" d="M133.835,179.692c0.275,0.663-0.174,1.479-1.003,1.822c-0.829,0.343-1.724,0.085-1.998-0.578
				c-0.275-0.663,0.174-1.479,1.003-1.822C132.665,178.771,133.56,179.03,133.835,179.692z"/>
			<path style="fill:#DB614D;" d="M119.806,183.228c0.111,0.709-0.518,1.396-1.404,1.534c-0.886,0.139-1.695-0.323-1.806-1.032
				c-0.111-0.709,0.518-1.396,1.404-1.534C118.887,182.057,119.695,182.519,119.806,183.228z"/>
			<g>
				<path style="fill:#0E3944;" d="M129.057,173.429c-0.067,0-0.134-0.019-0.195-0.059c-1.173-0.783-2.835-0.367-2.853-0.363
					c-0.191,0.05-0.38-0.065-0.428-0.253c-0.048-0.188,0.065-0.38,0.253-0.428c0.081-0.02,1.987-0.497,3.419,0.46
					c0.162,0.108,0.205,0.326,0.097,0.487C129.282,173.374,129.171,173.429,129.057,173.429z"/>
			</g>
			<g>
				<path style="fill:#0E3944;" d="M116.138,176.322c-0.061,0-0.124-0.016-0.18-0.05c-0.166-0.1-0.22-0.315-0.12-0.482
					c0.887-1.475,2.815-1.858,2.897-1.874c0.187-0.03,0.374,0.088,0.41,0.279c0.036,0.19-0.088,0.374-0.279,0.411
					c-0.017,0.004-1.703,0.343-2.427,1.546C116.374,176.261,116.257,176.322,116.138,176.322z"/>
			</g>
			<path style="fill:#1A4850;" d="M129.358,177.194c0.19,0.852-0.039,1.629-0.512,1.734c-0.473,0.106-1.012-0.499-1.203-1.351
				c-0.191-0.852,0.038-1.629,0.512-1.735C128.628,175.737,129.167,176.341,129.358,177.194z"/>
			<path style="fill:#1A4850;" d="M119.825,179.245c0.191,0.852-0.038,1.629-0.512,1.734c-0.473,0.106-1.012-0.499-1.203-1.351
				c-0.191-0.852,0.038-1.629,0.512-1.735C119.096,177.788,119.634,178.393,119.825,179.245z"/>
			<path style="fill:#1A4850;" d="M122.907,187.315c0,0,4.407-0.359,6.349-1.999c0,0-0.535,3.443-2.932,3.681
				C123.926,189.237,122.907,187.315,122.907,187.315z"/>
			<path style="fill:#1A4850;" d="M126.956,177.287c0,0,0.155-2.239,1.013-2.273c0.858-0.034,1.886,1.624,1.886,1.624l1.073-0.918
				l-1.182,0.432c0,0-1.054-1.733-1.87-1.554C126.715,174.852,126.956,177.287,126.956,177.287z"/>
			<path style="fill:#1A4850;" d="M120.351,179.036c0,0-1.095-1.959-1.886-1.624c-0.791,0.335-1.013,2.273-1.013,2.273l-1.363-0.372
				l1.254-0.114c0,0,0.215-2.017,1.029-2.203C119.532,176.73,120.351,179.036,120.351,179.036z"/>
			<g>
				<path style="fill:#DB614D;" d="M125.13,183.34l-0.353-0.67c0.571-0.301,0.62-0.708,0.56-0.994
					c-0.084-0.406-0.414-0.728-0.653-0.747c-0.137-0.007-0.255,0.11-0.347,0.354l-0.71-0.265c0.304-0.817,0.879-0.862,1.115-0.845
					c0.603,0.046,1.19,0.638,1.339,1.348C126.234,182.265,125.879,182.945,125.13,183.34z"/>
			</g>
			<path style="fill:#0E3944;" d="M114.298,184.499c0,0-2.116-7.786-0.86-13.292c0,0,5.969-8.312,17.491-4.202
				c0,0,3.416,5.502,5.109,13.202c0,0,0.43-2.766-0.716-8.926c-1.146-6.16-6.611-9.987-14.106-8.755
				C113.722,163.758,105.702,171.214,114.298,184.499z"/>
		</g>
		<path style="fill:#0E3944;" d="M126.378,165.276c0,0,0.457,2.032-1.52,7.265c0,0-1.422-1.486-3.087,0
			c-1.665,1.486-5.047,0.99-6.201,1.793c-1.154,0.803-1.154,2.639-1.154,2.639s-0.999-2.286,0-5.028c0,0-2.247,2.856-1.949,6.383
			c0,0-3.047-0.492-2.909-5.52c0.139-5.027,7.284-13.16,15.3-12.632c8.016,0.527,9.924,13.219,9.924,13.219
			s-0.731-0.575-1.875-0.319c0,0-0.177-2.688-1.979-6.074c0,0,0.83,2.444,0,5.081c0,0-2.233-1.171-3.993-0.805
			C126.935,171.28,128.022,169.154,126.378,165.276z"/>
		<path style="fill:#FF8B66;" d="M101.87,195.955c3.901-3.076,6.939,0.837,7.683,6.247c0.745,5.411-6.31,37.33-11.75,36.154
			c-2.1-0.454-2.956-8.815-2.956-8.815s2.128-8.975,3.505-22.483C98.985,200.85,99.836,197.559,101.87,195.955z"/>
		<path style="fill:#FF8B66;" d="M90.519,233.845c-5.252-5.006-14.669-21.611-17.061-30.07l3.986-1.603
			c0,0,12.002,17.17,17.473,21.499c5.471,4.33,7.395,9.151,4.952,13.28C97.426,241.08,91.625,234.898,90.519,233.845z"/>
		<g>
			<path style="fill:#FF8B66;" d="M75.095,192.698c-0.275,5.43,4.15,6.717,2.187,10.885c-0.405,0.86-1.022,1.317-1.663,1.544
				c-1.216,0.43-2.567,0.024-3.474-0.893c-2.104-2.126-5.356-4.379-7.087-5.367c-1.968-1.136-0.853-1.445-0.853-1.445
				c-0.191-0.09-0.376-0.165-0.562-0.24c-1.404-0.588-2.527-0.81-1.509-1.435c1.146-0.712,5.208,0.772,5.208,0.772
				c-5.287-3.522-6.722-2.663-5.757-3.411c1.317-1.024,6.344,1.331,6.494,1.402c-2.794-2.641-4.819-3.24-3.711-3.638
				c1.123-0.404,6.65,3.599,8.667,5.101c0.455,0.337,0.733,0.554,0.733,0.554C73.7,192.09,75.095,192.698,75.095,192.698z"/>
			<path style="fill:#EF6E4B;" d="M73.037,195.975c0.455,0.337,0.733,0.554,0.733,0.554s-0.946,1.592,0.279,3.654
				C74.049,200.182,71.799,198.705,73.037,195.975z"/>
			<path style="fill:#EF6E4B;" d="M68.401,199.093c-0.468-0.257-3.135-1.759-4.196-1.67c-0.191-0.09-0.376-0.165-0.562-0.24
				C64.356,196.242,67.871,198.708,68.401,199.093z"/>
		</g>
		<g>
			<path style="fill:#6097B2;" d="M89.365,279.668c0,0.59-0.478,1.067-1.067,1.067c-0.589,0-1.067-0.478-1.067-1.067
				s0.478-1.067,1.067-1.067C88.887,278.601,89.365,279.078,89.365,279.668z"/>
			<path style="fill:#6097B2;" d="M108.405,287.013c0,0.59-0.478,1.067-1.067,1.067s-1.067-0.478-1.067-1.067
				s0.478-1.067,1.067-1.067S108.405,286.424,108.405,287.013z"/>
			<path style="fill:#6097B2;" d="M124.629,290.952c0,0.589-0.478,1.067-1.067,1.067s-1.067-0.478-1.067-1.067
				c0-0.589,0.478-1.067,1.067-1.067S124.629,290.363,124.629,290.952z"/>
			<path style="fill:#6097B2;" d="M99.701,265.732c0,0.59-0.478,1.067-1.067,1.067s-1.067-0.478-1.067-1.067
				c0-0.589,0.478-1.067,1.067-1.067S99.701,265.143,99.701,265.732z"/>
			<circle style="fill:#6097B2;" cx="102.228" cy="275.874" r="1.067"/>
			<path style="fill:#6097B2;" d="M120.178,281.654c0,0.59-0.478,1.067-1.067,1.067s-1.067-0.478-1.067-1.067
				s0.478-1.067,1.067-1.067S120.178,281.064,120.178,281.654z"/>
			<path style="fill:#6097B2;" d="M122.495,264.16c0,0.589-0.478,1.067-1.067,1.067s-1.067-0.478-1.067-1.067
				c0-0.59,0.478-1.067,1.067-1.067S122.495,263.571,122.495,264.16z"/>
			<circle style="fill:#6097B2;" cx="110.365" cy="260.52" r="1.067"/>
			<path style="fill:#6097B2;" d="M79.921,300.487c0,0.59-0.478,1.067-1.067,1.067s-1.067-0.478-1.067-1.067
				s0.478-1.067,1.067-1.067S79.921,299.898,79.921,300.487z"/>
			<path style="fill:#6097B2;" d="M64.711,295.949c0,0.589-0.478,1.067-1.067,1.067c-0.589,0-1.067-0.478-1.067-1.067
				c0-0.59,0.478-1.067,1.067-1.067C64.233,294.882,64.711,295.36,64.711,295.949z"/>
			<path style="fill:#6097B2;" d="M55.644,287.605c-0.189,0.289-0.522,0.477-0.899,0.477c-0.588,0-1.066-0.477-1.066-1.066
				c0-0.133,0.022-0.255,0.078-0.366C54.423,286.883,55.045,287.205,55.644,287.605z"/>
			<circle style="fill:#6097B2;" cx="84.303" cy="314.406" r="1.067"/>
			<path style="fill:#6097B2;" d="M58.072,329.534c0,0.59-0.478,1.067-1.067,1.067s-1.067-0.478-1.067-1.067
				s0.478-1.067,1.067-1.067S58.072,328.944,58.072,329.534z"/>
			<circle style="fill:#6097B2;" cx="68.157" cy="320.364" r="1.067"/>
			<circle style="fill:#6097B2;" cx="51.548" cy="312.251" r="1.067"/>
			<path style="fill:#6097B2;" d="M66.022,344.198c0,0.589-0.478,1.067-1.067,1.067c-0.589,0-1.067-0.478-1.067-1.067
				c0-0.59,0.478-1.067,1.067-1.067C65.544,343.131,66.022,343.609,66.022,344.198z"/>
			<path style="fill:#6097B2;" d="M76.184,288.081c0,0.59-0.478,1.067-1.067,1.067c-0.59,0-1.067-0.478-1.067-1.067
				c0-0.589,0.478-1.067,1.067-1.067C75.706,287.013,76.184,287.491,76.184,288.081z"/>
			<path style="fill:#6097B2;" d="M86.438,270.106c0,0.59-0.478,1.067-1.067,1.067c-0.589,0-1.067-0.478-1.067-1.067
				s0.478-1.067,1.067-1.067C85.96,269.039,86.438,269.517,86.438,270.106z"/>
			<path style="fill:#6097B2;" d="M98.043,255.147c0,0.589-0.478,1.067-1.067,1.067c-0.59,0-1.067-0.478-1.067-1.067
				c0-0.59,0.478-1.067,1.067-1.067C97.565,254.079,98.043,254.557,98.043,255.147z"/>
			<path style="fill:#6097B2;" d="M74.525,276.941c0,0.59-0.478,1.067-1.067,1.067s-1.067-0.478-1.067-1.067
				c0-0.589,0.478-1.067,1.067-1.067S74.525,276.351,74.525,276.941z"/>
			<path style="fill:#6097B2;" d="M87.506,259.452c0,0.589-0.478,1.067-1.067,1.067s-1.067-0.478-1.067-1.067
				c0-0.59,0.478-1.067,1.067-1.067S87.506,258.863,87.506,259.452z"/>
			<path style="fill:#6097B2;" d="M67.09,307.51c0,0.59-0.478,1.067-1.067,1.067c-0.59,0-1.067-0.478-1.067-1.067
				s0.478-1.067,1.067-1.067C66.612,306.443,67.09,306.921,67.09,307.51z"/>
			<path style="fill:#6097B2;" d="M53.682,298.084c0,0.59-0.478,1.067-1.067,1.067s-1.067-0.478-1.067-1.067
				s0.478-1.067,1.067-1.067S53.682,297.495,53.682,298.084z"/>
			<circle style="fill:#6097B2;" cx="91.5" cy="294.882" r="1.067"/>
			<circle style="fill:#6097B2;" cx="113.567" cy="300.487" r="1.067"/>
			<path style="fill:#6097B2;" d="M113.567,270.106c0,0.59-0.478,1.067-1.067,1.067s-1.067-0.478-1.067-1.067
				s0.478-1.067,1.067-1.067S113.567,269.517,113.567,270.106z"/>
			<path style="fill:#6097B2;" d="M126.396,272.344c0,0.59-0.478,1.067-1.067,1.067s-1.067-0.478-1.067-1.067
				c0-0.589,0.478-1.067,1.067-1.067S126.396,271.755,126.396,272.344z"/>
			<path style="fill:#6097B2;" d="M100.768,308.578c0,0.59-0.478,1.067-1.067,1.067s-1.067-0.478-1.067-1.067
				s0.478-1.067,1.067-1.067S100.768,307.988,100.768,308.578z"/>
			<circle style="fill:#6097B2;" cx="90.433" cy="327.563" r="1.067"/>
			<circle style="fill:#6097B2;" cx="74.049" cy="330.601" r="1.067"/>
			<circle style="fill:#6097B2;" cx="119.111" cy="314.406" r="1.067"/>
			<path style="fill:#6097B2;" d="M105.43,322.499c0,0.59-0.478,1.067-1.067,1.067s-1.067-0.478-1.067-1.067
				s0.478-1.067,1.067-1.067S105.43,321.909,105.43,322.499z"/>
			<path style="fill:#6097B2;" d="M83.236,346.333c0,0.589-0.478,1.067-1.067,1.067c-0.59,0-1.067-0.478-1.067-1.067
				c0-0.59,0.478-1.067,1.067-1.067C82.758,345.266,83.236,345.743,83.236,346.333z"/>
			<circle style="fill:#6097B2;" cx="98.634" cy="340.775" r="1.067"/>
			<circle style="fill:#6097B2;" cx="114.495" cy="334.487" r="1.067"/>
			<path style="fill:#6097B2;" d="M108.405,352.849c0,0.59-0.478,1.067-1.067,1.067s-1.067-0.478-1.067-1.067
				s0.478-1.067,1.067-1.067S108.405,352.259,108.405,352.849z"/>
		</g>
		<g>
			<path style="fill:#164353;" d="M107.238,409.056H89.707c-1.144-3.264,0.966-6.539,0.611-9.415
				c-0.611-4.863,2.22-2.176,2.22-2.176c0.5-5.229,7.85-6.217,7.772-3.886c-0.122,3.431,0.544,5.551,1.521,6.972
				c1.976,2.853,5.218,2.831,5.773,4.874c0.056,0.2,0.1,0.4,0.133,0.577C108.281,408.556,107.238,409.056,107.238,409.056z"/>
			<path style="fill:#205260;" d="M107.737,406.003c-3.631,0.844-12.002-0.255-12.335-2.365c-0.322-2.043,4.186-2.998,6.428-3.087
				c1.976,2.853,5.218,2.831,5.773,4.874C107.66,405.625,107.704,405.825,107.737,406.003z"/>
		</g>
		<g>
			<path style="fill:#164353;" d="M35.171,273.26c-1.865-1.699-4.896,1.11-4.896,1.11s1.632,2.42,0.577,3.397
				c-1.055,0.977-2.276-1.255-4.352-0.278c-0.167,0.078-0.344,0.178-0.511,0.289c-1.621,0.966-3.309,2.998-4.674,4.541
				c-0.278,0.311-0.544,0.6-0.788,0.855c-1.588,1.665-5.684,2.642-6.451-1.799c-0.766-4.441,4.23-9.648,9.715-14.433
				c5.485-4.785,9.026-1.943,9.026-1.943s1.243,2.01,1.243,3.264c0,1.243,1.11,1.865,1.732,3.053
				C36.415,272.494,35.171,273.26,35.171,273.26z"/>
			<path style="fill:#205260;" d="M25.989,277.779c-1.621,0.966-3.309,2.998-4.674,4.541c-2.054,0.488-3.897,0.344-4.186-1.588
				c-0.7-4.663,8.604-10.592,7.861-7.317C24.613,275.059,25.257,276.624,25.989,277.779z"/>
		</g>
	</g>
	<g>
		<path style="fill:#CFD8DC;" d="M350.621,401.475c-0.865-0.454-1.661-1.452-2.377-2.714c0-0.001-0.616-3.733,0-7.654
			c0.616-3.922-1.091-7.124-6.643-8.327c-5.397-1.169-8.599,1.431-7.353,12.281c0,0.001,0.001,0.003,0.001,0.004
			c-0.821,4.507-0.991,9.654,0.882,13.991h16.613C351.744,409.056,354.364,403.44,350.621,401.475z"/>
		<path style="fill:#FF8B66;" d="M365.195,342.996c0,0,0,10.825-6.106,21.927c-6.218,11.306-13.905,26.822-13.905,26.822
			s-5.122,4.997-8.376-3.28c0,0,2.297-28.816,7.571-39.364C349.651,338.555,365.195,342.996,365.195,342.996z"/>
		<path style="fill:#FF8B66;" d="M444.856,307.745c0,0,9.895,41.61,16.189,52.586c0,0-1.448,4.592-8.263,5.98
			c0,0-21.526-31.642-22.914-44.965C428.479,308.022,444.856,307.745,444.856,307.745z"/>
		<g>
			<path style="fill:#8B383E;" d="M449.641,317.526c-2.631,6.339-22.96,6.684-22.96,6.684l-1.554-2.287l-0.411-0.599l-3.175-4.685
				c0,0-33.685-33.041-40.247-30.266h-0.011c-0.189,0.089-0.377,0.189-0.555,0.322c-4.508,3.22-4.93,20.862-10.259,50.472
				c-0.511,2.809-1.643,6.084-2.498,8.349c-0.1,0.244-0.189,0.478-0.278,0.7c-0.488,1.255-0.833,2.054-0.833,2.054
				c-20.562,8.327-27.346-8.127-27.346-8.127s0.244-0.477,0.599-1.243c0.078-0.167,0.167-0.355,0.255-0.555
				c1.077-2.376,2.798-6.495,2.776-8.671c-0.022-2.387-0.044-4.685-0.055-6.895c0-0.2,0-0.389-0.011-0.577
				c-0.033-7.117-0.022-13.301,0.022-18.674v-0.566c0.022-2.343,0.056-4.53,0.1-6.573v-0.577c0.178-9.359,0.477-15.61,0.799-19.774
				c0.011-0.189,0.033-0.389,0.045-0.566c0.566-7.006,1.166-7.694,1.166-7.694l-4.119-28.634h44.943c0,0,6.75,6.761,15.51,15.688
				c0.189,0.178,0.366,0.355,0.544,0.544c3.175,3.231,6.606,6.739,10.048,10.303c0.144,0.144,0.277,0.277,0.4,0.411
				c1.355,1.399,2.709,2.798,4.052,4.186c0.167,0.166,0.322,0.344,0.489,0.511c4.508,4.674,8.882,9.282,12.624,13.312
				c0.133,0.133,0.255,0.267,0.378,0.4c5.118,5.54,9.015,9.97,10.359,12.035c3.564,5.451,6.339,12.546,7.872,16.931c0,0,0,0,0,0.011
				c0.078,0.2,0.144,0.378,0.211,0.566C449.241,316.172,449.641,317.526,449.641,317.526z"/>
			<g>
				<path style="fill:#662C33;" d="M351.938,272.061c-1.832,2.165-4.497,3.497-7.938,3.975c0.011-0.189,0.033-0.389,0.045-0.566
					c3.242-0.466,5.751-1.732,7.472-3.775c3.086-3.642,2.587-8.56,2.576-8.604l0.555-0.067
					C354.669,263.235,355.18,268.231,351.938,272.061z"/>
				<path style="fill:#662C33;" d="M402.089,255.374c-0.178,0.011-0.344,0.022-0.522,0.022c-4.996,0-10.214-5.462-10.481-5.74
					l0.4-0.389c0.067,0.078,5.263,5.518,10.059,5.562C401.733,255.008,401.911,255.185,402.089,255.374z"/>
				<path style="fill:#662C33;" d="M367.97,345.516c-0.1,0.244-0.189,0.478-0.278,0.7c-3.331,1.221-6.384,1.721-9.171,1.721
					c-8.882,0-15.033-5.141-18.408-9.038c0.078-0.167,0.167-0.355,0.255-0.555C344.688,343.406,353.915,350.878,367.97,345.516z"/>
				<path style="fill:#662C33;" d="M380.039,276.058c0.744,3.186,1.221,6.662,1.243,10.314c-0.189,0.089-0.377,0.189-0.555,0.322
					c-0.022-16.765-9.726-29.844-9.837-29.988l0.444-0.333c0.089,0.111,5.84,7.883,8.56,19.108c1.132-0.744,1.899-1.81,2.22-3.186
					c1.399-5.884-4.963-15.499-5.018-15.599l0.455-0.311c0.266,0.411,6.551,9.915,5.107,16.032
					C382.282,274.015,381.393,275.225,380.039,276.058z"/>
				<path style="fill:#662C33;" d="M430.078,284.496c-1.654,1.799-3.209,3.331-3.353,3.464l-0.3,0.3l-0.144-0.4
					c-2.176-5.696-16.165-18.042-16.31-18.164l-0.167-0.156l2.332-3.864c0.144,0.144,0.277,0.277,0.4,0.411l-1.954,3.242
					c2.72,0.944,4.652,1.11,6.006,0.944c0.167,0.166,0.322,0.344,0.489,0.511c-0.455,0.078-0.944,0.122-1.454,0.122
					c-1.255,0-2.687-0.255-4.297-0.744c3.175,2.864,13.046,12.013,15.311,17.109c0.877-0.866,1.987-2.009,3.064-3.175
					C429.834,284.23,429.956,284.363,430.078,284.496z"/>
				<path style="fill:#662C33;" d="M353.315,322.678l-0.222,0.044c-0.211,0.056-2.731,0.577-5.629,0.577
					c-1.454,0-2.987-0.133-4.374-0.522c0-0.2,0-0.389-0.011-0.577c3.664,1.055,8.56,0.244,9.67,0.033l-0.932-23.104
					c-0.522,1.266-1.554,2.998-3.486,3.952c-0.922,0.466-1.954,0.688-3.086,0.688c-0.677,0-1.388-0.078-2.143-0.244v-0.566
					c1.921,0.444,3.586,0.322,4.974-0.378c2.354-1.166,3.286-3.664,3.575-4.652c-1.854,0.277-5.596-0.666-8.449-1.543v-0.577
					c3.075,0.933,7.239,2.01,8.738,1.488l0.355-0.122L353.315,322.678z"/>
				<path style="fill:#662C33;" d="M448.519,314.04c-3.231,3.186-9.848,8.06-20.029,8.06c-1.077,0-2.198-0.055-3.364-0.178
					l-0.411-0.599c12.379,1.421,20.14-4.386,23.593-7.85C448.386,313.674,448.453,313.851,448.519,314.04z"/>
			</g>
		</g>
		<path style="fill:#CE364C;" d="M394.339,117.405c0,0-1.235-2.844-6.453-2.845c-4.021-0.001-5.56,2.22-5.56,2.22
			c-2.406,7.032-4.991,33.955-5.917,34.913c-0.469,0.486-30.296,20.574-30.296,20.574c16.186,0.303,26.285,20.255,26.285,20.255
			c0.523-6.556,18.803-32.536,18.999-34.853C391.768,153.3,399.501,133.782,394.339,117.405z"/>
		<path style="fill:#CE364C;" d="M342.559,258.18c0,0-0.15,5.617,1.667,5.987c1.817,0.37,16.62,4.745,33.644-2.993
			c17.024-7.739,19.985-13.475,14.988-17.731C387.862,239.187,342.559,258.18,342.559,258.18z"/>
		<path style="fill:#F24052;" d="M335.738,176.155c0,0-15.489-1.835-24.371,2.009c0,0-2.477,10.992,9.725,35.59
			c12.202,24.599,9.372,40.092,23.134,45.924c12.2,5.171,48.17-10.216,49.3-15.319c2.844-12.846-19.152-35.391-20.54-48.455
			C371.598,182.841,358.83,163.2,335.738,176.155z"/>
		<path style="fill:#CE364C;" d="M311.367,178.164c-10.825,3.844-23.003,15.998-23.02,21.856
			c-0.017,5.858,10.157,8.117,10.157,8.117l16.681-8.117c0,0,4.771-3.331,1.734-13.041
			C313.881,177.27,311.367,178.164,311.367,178.164z"/>
		<g>
			<path style="fill:#CFD8DC;" d="M355.845,188.996c-3.234,0-7.246-1.165-9.739-2.942c-1.374-0.979-2.193-2.083-2.37-3.194
				c-0.612-3.845,3.132-5.8,3.293-5.881l0.504,0.988c-0.13,0.067-3.183,1.677-2.7,4.718c0.128,0.81,0.792,1.662,1.917,2.464
				c2.791,1.99,7.618,3.157,10.761,2.603c1.416-0.25,2.343-0.76,2.754-1.514c0.503-0.923,0.074-1.967,0.069-1.978l1.02-0.439
				c0.027,0.062,0.647,1.532-0.107,2.933c-0.578,1.073-1.77,1.776-3.543,2.089C357.13,188.947,356.503,188.996,355.845,188.996z"/>
		</g>
		<g>
			<path style="fill:#CFD8DC;" d="M342.118,200.711c-2.395,0-6.372-0.999-6.929-4.931c-0.284-2.001-0.101-3.67,0.06-5.142
				c0.237-2.168,0.425-3.881-0.838-5.933c-2.086-3.387-4.926-3.615-5.046-3.623l0.067-1.108c0.142,0.008,3.52,0.247,5.924,4.149
				c1.463,2.377,1.236,4.446,0.996,6.636c-0.161,1.476-0.328,3.002-0.064,4.865c0.602,4.243,6.01,3.977,6.239,3.965l0.066,1.108
				C342.443,200.706,342.284,200.711,342.118,200.711z"/>
		</g>
		<path style="fill:#CE364C;" d="M345.488,180.785c0,0,8.188-5.577,6.245-11.614c-1.943-6.037-28.311-5.621-35.112,1.596
			c-6.8,7.217,14.711,12.007,14.711,12.007C332.997,179.418,343.637,179.048,345.488,180.785z"/>
		<path style="fill:#A02E44;" d="M330.766,179.84c-3.885-1.319-6.189-4.123-5.356-7.362c0.833-3.238,17.536-3.324,20.703-0.737
			C349.281,174.329,344.819,184.611,330.766,179.84z"/>
		<path style="fill:#EF6E4B;" d="M328.917,170.739c0,0,3.437,5.872,1.849,9.101c0,0,11.792,4.071,11.792-2.527
			c0,0-2.222-4.945-1.385-8.142L328.917,170.739z"/>
		<g>
			<path style="fill:#FFB878;" d="M324.985,165.61c0,0-5.794-9.279-5.257-18.143c0.269-4.432,2.548-6.168,2.548-6.168
				s-1.84-2.558,0.132-6.467c0,0,2.729,3.158,12.307,2.162c9.236-0.96,10.157,5.624,10.157,5.624
				c6.602,0.981,2.148,20.951-2.459,22.993H324.985z"/>
			<path style="fill:#FF8B66;" d="M322.527,157.042c0,0-3.33-3.323-3.74,0.562c-0.475,4.501,3.613,6.314,4.412,4.882
				C323.997,161.054,322.527,157.042,322.527,157.042z"/>
			<path style="fill:#FF8B66;" d="M345.846,157.276c0,0,3.33-3.323,3.74,0.562c0.475,4.501-3.613,6.314-4.412,4.882
				C344.375,161.289,345.846,157.276,345.846,157.276z"/>
			<path style="fill:#FF8B66;" d="M333.835,173.345c-7.389,0-11.559-4.827-11.559-19.302c0-7.467,3.799-12.047,12.076-12.047
				c8.276,0,11.762,4.58,11.762,12.047C346.114,169.597,341.469,173.345,333.835,173.345z"/>
			<path style="fill:#DB614D;" d="M343.667,159.205c0.13,0.743-0.518,1.476-1.447,1.638c-0.928,0.162-1.787-0.309-1.916-1.051
				c-0.129-0.743,0.518-1.476,1.447-1.638C342.679,157.992,343.537,158.463,343.667,159.205z"/>
			<path style="fill:#DB614D;" d="M328.468,159.61c-0.049,0.752-0.852,1.312-1.792,1.251c-0.941-0.061-1.664-0.721-1.615-1.473
				c0.049-0.752,0.851-1.313,1.792-1.251C327.795,158.198,328.517,158.857,328.468,159.61z"/>
			<g>
				<path style="fill:#FFB878;" d="M340.413,151.444c-0.097,0.015-0.198-0.008-0.281-0.072c-1.176-0.904-2.941-0.584-2.968-0.58
					c-0.197,0.032-0.393-0.094-0.43-0.295c-0.039-0.201,0.094-0.393,0.295-0.431c0.077-0.017,2.118-0.383,3.553,0.721
					c0.162,0.124,0.192,0.356,0.068,0.518C340.589,151.383,340.503,151.43,340.413,151.444z"/>
			</g>
			<g>
				<path style="fill:#FFB878;" d="M326.271,151.495c-0.091-0.011-0.177-0.056-0.24-0.132c-0.129-0.158-0.106-0.391,0.051-0.52
					c1.4-1.147,3.45-0.843,3.529-0.829c0.201,0.032,0.339,0.22,0.308,0.421c-0.031,0.202-0.228,0.336-0.421,0.309
					c-0.013-0.005-1.811-0.261-2.947,0.671C326.468,151.481,326.367,151.507,326.271,151.495z"/>
			</g>
			<path style="fill:#1A4850;" d="M339.649,155.615c0,0.917-0.413,1.662-0.923,1.661c-0.51,0-0.923-0.744-0.923-1.661
				c0-0.918,0.413-1.662,0.923-1.662C339.236,153.953,339.649,154.697,339.649,155.615z"/>
			<path style="fill:#1A4850;" d="M329.781,155.615c0,0.917-0.413,1.662-0.923,1.661c-0.51,0-0.923-0.744-0.923-1.661
				c0-0.918,0.413-1.662,0.923-1.662S329.781,154.697,329.781,155.615z"/>
			<path style="fill:#FFB878;" d="M324.543,143.599c0,0,7.875,2.883,19.164,2.072c0,0,2.407,3,2.115,13.587
				c0,0,6.611-19.07-12.687-19.07s-10.604,18.647-10.604,18.647S320.953,147.172,324.543,143.599z"/>
			<g>
				<path style="fill:#DB614D;" d="M334.303,160.549l-0.553-0.557l1.462-1.452c-1.417-2.004-1.41-6.641-1.408-6.848l0.785,0.004
					c0,0.05-0.008,5.039,1.439,6.607l0.257,0.278L334.303,160.549z"/>
			</g>
			<path style="fill:#1A4850;" d="M329.399,162.966c0,0,7.273,0.307,10.944-0.664c0,0,0.649,5.289-4.987,5.551
				C329.399,168.13,329.399,162.966,329.399,162.966z"/>
		</g>
		<path style="fill:#CFD8DC;" d="M360.476,182.96c1.388-0.258,1.249,3.374,0,2.321C359.227,184.229,359.088,183.218,360.476,182.96z
			"/>
		<path style="fill:#CFD8DC;" d="M343.74,200.559c-0.211,1.396-3.597,0.074-2.193-0.761
			C342.95,198.963,343.951,199.163,343.74,200.559z"/>
		<path style="fill:#EF6E4B;" d="M328.843,208.137c0,0-2.204,5.651-2.078,8.844c0.126,3.193,1.17,2.776,1.17,2.776
			s-1.671,0.658-1.988,2.498c-0.316,1.84,4.33,3.192,4.649,3.192c0.319,0,3.598-1.249,3.598-1.249l0.687-10.443l-2.903-1.823
			L328.843,208.137z"/>
		<path style="fill:#FF8B66;" d="M330.596,207.406c0,0,4.012,2.498,5.566,4.025c1.554,1.527,0.667,13.323,0,13.878
			c-0.667,0.555-5.782,1.7-6.763,1.058c-0.981-0.642,0.382-4.111,0.382-4.111s2.569-0.555,2.198,0.416c-0.37,0.972,0,1.804,0,1.804
			l1.055-0.416c0,0-0.518-2.637,0-4.58c0.518-1.943-3.617-3.992-4.117-7.547C328.417,208.377,330.596,207.406,330.596,207.406z"/>
		<path style="fill:#CE364C;" d="M289.013,201.658c-1.285-5.547,4.221-7.51,11.88-6.564c8.882,1.097,27.122,3.42,31.087,13.043
			c0,0,1.295,3.795-2.056,5.618C320.554,218.851,291.425,212.077,289.013,201.658z"/>
		<path style="fill:#A02E44;" d="M316.798,197.983c0,0-10.585-4.397-15.859-4.843C295.665,192.695,308.231,197.303,316.798,197.983z
			"/>
		<g>
			<path style="fill:#FF8B66;" d="M396.149,102.681c-0.799,0.91-2.121,4.452-2.121,4.452c-0.555,2.975-0.877,4.619-1.921,5.984
				c-1.033,1.366-0.489,3.775-0.489,3.775s-4.041,2.076-7.439-0.489c0,0,0.355-2.387,0-3.064c-0.699-1.354-2.942-2.076-3.708-4.807
				c-0.766-2.742-3.064-5.796-3.064-5.796s0.655-1.421,1.854-0.555c1.21,0.877,1.976,3.064,2.631,3.286
				c0.133,0.044,0.267,0.078,0.4,0.089c0,0,0.011,0,0.033,0.011c0.5,0.067,1.01-0.044,1.321-0.344
				c0.022-0.011,0.056-0.033,0.078-0.067c1.099-1.277,1.355-5.03,1.31-6.706c-0.067-2.331,0.022-5.551,1.443-5.007
				c1.421,0.544,0.122,1.843,1.221,6.984l0.533,0.067c0.1,0.366,1.077-3.12,1.31-6.395c0.167-2.254,1.643-1.421,1.965-0.711
				c0.333,0.711-0.167,2.953-0.266,4.585c-0.078,1.077-0.167,2.198-0.222,2.865l0.622,0.344c2.243-3.908,1.477-5.529,2.787-5.607
				c1.299-0.078,0.833,3.22,0.133,4.474c-0.3,0.544-0.588,1.676-0.822,2.787c2.298-2.654,2.043-4.041,3.098-3.875
				C397.925,99.139,396.948,101.77,396.149,102.681z"/>
			<path style="fill:#EF6E4B;" d="M386.223,108.798c-0.777-2.143-3.553-3.12-3.897-3.231c0.5,0.067,1.01-0.044,1.321-0.344
				C386.367,106.444,386.223,108.798,386.223,108.798z"/>
		</g>
		<g>
			<path style="fill:#CFD8DC;" d="M337.993,392.771c0,0-1.536-3.135-0.167-4.482c1.369-1.347,2.982,1.151,5.321,0.596
				c2.34-0.555,2.882-2.218,3.49,0.047C347.246,391.198,346.505,398.322,337.993,392.771z"/>
			<path style="fill:#ADBEC4;" d="M346.8,392.632c0,0-6.284,2.226-9.541,0l0.828,2.72c0,0,6.83,0.723,7.772-0.998L346.8,392.632z"/>
			<path style="fill:#ADBEC4;" d="M346.715,396.012c0,0-5.753-0.798-8.529,0.63v1.349c0,0,7.501-1.751,9.926,0L346.715,396.012z"/>
			<path style="fill:#ADBEC4;" d="M337.91,400.791c0,0,1.116-2.719,4.616-2.914c3.5-0.195,5.862,1.732,5.862,1.732
				S342.837,397.322,337.91,400.791z"/>
		</g>
		<g>
			<path style="fill:#CFD8DC;" d="M486.002,363.013c-11.047,14.744-26.08,17.575-26.08,17.575c-4.363-3.486-4.474-7.616-4.474-7.616
				s-4.208-3.753-4.763-5.551c-0.555-1.799,3.608-7.217,6.106-6.661c1.721,0.377,2.72,1.754,3.175,2.565
				c-2.065-4.652-0.411-6.273,2.52-5.873c3.053,0.411,0.167,1.133,2.354,3.586c0.155,0.178,0.333,0.322,0.522,0.455
				c0.4,0.278,0.877,0.466,1.421,0.566c0.477,0.089,1.01,0.111,1.565,0.078c0.289-0.011,0.588-0.044,0.888-0.089
				c0.566-0.089,1.143-0.233,1.743-0.422c0.922-0.289,1.876-0.699,2.809-1.21c3.819-2.087,5.429-2.798,8.338-2.054
				c2.898,0.733,2.853,2.931,2.853,2.931L486.002,363.013z"/>
			<path style="fill:#ADBEC4;" d="M486.002,363.013c-11.047,14.744-26.08,17.575-26.08,17.575
				c7.672-3.297,14.722-7.616,19.54-12.935C484.27,362.336,486.002,363.013,486.002,363.013z"/>
			<g>
				<path style="fill:#ADBEC4;" d="M465.362,361.492c0.4,0.278,0.877,0.466,1.421,0.566c-2.92,0.588-3.131,3.198-3.131,3.198
					l-1.243-0.4C462.675,361.725,465.151,361.503,465.362,361.492z"/>
				<path style="fill:#ADBEC4;" d="M467.327,365.567l-1.299,0.044c-0.489-1.843,0.144-2.942,0.755-3.553
					c0.477,0.089,1.01,0.111,1.565,0.078C466.805,363.657,467.327,365.567,467.327,365.567z"/>
				<path style="fill:#ADBEC4;" d="M470.536,364.856l-1.288,0.166c-0.5-1.31-0.355-2.287-0.011-2.975
					c0.566-0.089,1.143-0.233,1.743-0.422C469.914,363.213,470.536,364.856,470.536,364.856z"/>
			</g>
		</g>
		<path style="fill:#CE364C;" d="M346.914,227.946c0,0,2.851,15.386-2.915,21.517c-5.765,6.131-1.951,1.093-0.232-6.812
			C345.488,234.746,344.178,226.419,346.914,227.946z"/>
		<path style="fill:#CE364C;" d="M373.522,221.079c0,0,9.088,2.986,13.842,11.38C387.364,232.458,381.016,218.792,373.522,221.079z"
			/>
	</g>
	<g>
		<g>
			<path style="fill:#FF8B66;" d="M137.473,106.767c1.211,0.019,4.723,1.417,4.723,1.417c2.578,1.586,4.012,2.451,5.725,2.594
				c1.705,0.152,2.405,3.081,2.405,3.081s6.725,1.471,7.105-2.769c0,0-3.759-5.321-4.023-6.039
				c-0.534-1.428,0.436-3.574-1.073-5.976c-1.518-2.409-2.238-6.162-2.238-6.162s-1.493-0.468-1.656,1.002
				c-0.162,1.486,0.944,3.522,0.669,4.157c-0.057,0.128-0.121,0.25-0.202,0.356c0,0-0.007,0.008-0.014,0.032
				c-0.286,0.415-0.711,0.719-1.142,0.748c-0.023,0.009-0.062,0.019-0.102,0.013c-1.684-0.042-4.637-2.373-5.849-3.531
				c-1.683-1.615-4.129-3.71-4.68-2.292c-0.551,1.419,1.284,1.328,4.356,5.593l-0.308,0.44c0.204,0.32-3.035-1.296-5.619-3.322
				c-1.782-1.39-2.156,0.264-1.846,0.979c0.303,0.724,2.301,1.859,3.577,2.881c0.85,0.665,1.741,1.352,2.272,1.759l-0.162,0.692
				c-4.402-0.962-5.089-2.618-6.026-1.699c-0.93,0.91,1.827,2.779,3.227,3.103c0.604,0.143,1.638,0.689,2.617,1.262
				c-3.51-0.078-4.367-1.199-4.951-0.306C133.656,105.706,136.262,106.748,137.473,106.767z"/>
			<path style="fill:#EF6E4B;" d="M148.671,103.518c-1.066-2.015,0.073-4.728,0.222-5.057c-0.286,0.415-0.711,0.719-1.142,0.748
				C146.829,102.044,148.671,103.518,148.671,103.518z"/>
		</g>
		<g>
			<path style="fill:#FF8B66;" d="M335.329,106.767c-1.211,0.019-4.723,1.417-4.723,1.417c-2.578,1.586-4.012,2.451-5.725,2.594
				c-1.705,0.152-2.405,3.081-2.405,3.081s-6.725,1.471-7.105-2.769c0,0,3.76-5.321,4.023-6.039
				c0.534-1.428-0.436-3.574,1.073-5.976c1.518-2.409,2.238-6.162,2.238-6.162s1.493-0.468,1.656,1.002
				c0.162,1.486-0.944,3.522-0.669,4.157c0.057,0.128,0.121,0.25,0.203,0.356c0,0,0.007,0.008,0.014,0.032
				c0.286,0.415,0.711,0.719,1.142,0.748c0.023,0.009,0.062,0.019,0.102,0.013c1.684-0.042,4.637-2.373,5.85-3.531
				c1.683-1.615,4.129-3.71,4.68-2.292c0.551,1.419-1.284,1.328-4.356,5.593l0.308,0.44c-0.204,0.32,3.035-1.296,5.619-3.322
				c1.782-1.39,2.156,0.264,1.846,0.979c-0.303,0.724-2.301,1.859-3.577,2.881c-0.85,0.665-1.741,1.352-2.272,1.759l0.162,0.692
				c4.402-0.962,5.089-2.618,6.026-1.699c0.93,0.91-1.827,2.779-3.227,3.103c-0.604,0.143-1.638,0.689-2.617,1.262
				c3.509-0.078,4.367-1.199,4.951-0.306C339.146,105.706,336.54,106.748,335.329,106.767z"/>
			<path style="fill:#EF6E4B;" d="M324.131,103.518c1.066-2.015-0.073-4.728-0.222-5.057c0.286,0.415,0.711,0.719,1.142,0.748
				C325.973,102.044,324.131,103.518,324.131,103.518z"/>
		</g>
		<path style="fill:#0E3944;" d="M276.231,310.613l-12.919-79.991l-25.868,2.889l-25.868-2.889l-12.919,79.991l-6.205,77.581
			c0,0,1.973,6.428,14.877,1.987c0,0,9.574-71.958,11.054-73.543c1.48-1.585,16.683-48.586,16.683-48.586h4.755
			c0,0,15.202,47.001,16.683,48.586c1.48,1.585,11.054,73.543,11.054,73.543c12.905,4.441,14.877-1.987,14.877-1.987
			L276.231,310.613z"/>
		<path style="fill:#0C476B;" d="M229.294,153.16c1.634,1.59,9.673,4.459,13.918,0l2.878,2.827c0,0-3.282,7.718-9.041,7.988
			c-5.76,0.27-9.923-6.867-9.923-6.867L229.294,153.16z"/>
		<path style="fill:#0C476B;" d="M252.061,152.288c9.622-4.143,40.709-15.154,40.709-15.154s20.898-26.182,25.16-30.068
			c0,0,4.626,0.833,5.98,6.592c0,0-13.457,28.814-20.771,37.063c-7.315,8.249-44.362,26.09-44.362,26.09L252.061,152.288z"/>
		<path style="fill:#FFB878;" d="M218.383,151.694c2.863-1.81,17.234,7.804,17.234,7.804s18.684-9.922,23.069-8
			c0,0,3.952,5.288,5.539,18.882c1.588,13.594,1.693,69.536,1.693,69.536s-12.562,4.444-29.553,4.444
			c-19.37,0-29.791-5.555-29.791-5.555S203.117,161.349,218.383,151.694z"/>
		<path style="fill:#EF6E4B;" d="M230.053,150.241c0,0,2.069,6.509,0,9.017c0,0,2.149,4.509,6.012,4.709
			c4.463,0.23,6.011-4.709,6.011-4.709s-2.36-6.287,0-8.496L230.053,150.241z"/>
		<g>
			<path style="fill:#8B383E;" d="M224.894,143.834c0,0-4.355-8.382-3.493-17.34c0.862-8.957,14.359-11.011,23.454-6.61
				c0,0-2.7-2.64-1.643-3.374c1.057-0.733,2.878,3.961,2.878,3.961s2.873-0.88,3.313,0c0.44,0.881-2.943,1.362-2.943,1.362
				s5.869,3.255,0.386,20.578L224.894,143.834z"/>
			<path style="fill:#FF8B66;" d="M224.239,138.526c0,0-3.247-3.24-3.647,0.548c-0.463,4.389,3.523,6.157,4.302,4.761
				C225.673,142.438,224.239,138.526,224.239,138.526z"/>
			<path style="fill:#FF8B66;" d="M246.977,138.755c0,0,3.247-3.241,3.647,0.548c0.463,4.389-3.523,6.157-4.302,4.761
				C245.543,142.667,246.977,138.755,246.977,138.755z"/>
			<path style="fill:#FF8B66;" d="M235.266,154.422c-7.205,0-11.271-4.706-11.271-18.821c0-7.281,3.704-11.747,11.775-11.747
				c8.07,0,11.469,4.466,11.469,11.747C247.239,150.768,242.709,154.422,235.266,154.422z"/>
			<path style="fill:#DB614D;" d="M244.852,140.635c0.127,0.724-0.505,1.439-1.411,1.597s-1.742-0.301-1.868-1.025
				c-0.127-0.724,0.505-1.439,1.411-1.597C243.889,139.452,244.726,139.911,244.852,140.635z"/>
			<path style="fill:#DB614D;" d="M230.033,141.03c-0.048,0.734-0.83,1.28-1.748,1.22c-0.917-0.06-1.622-0.703-1.574-1.437
				c0.048-0.733,0.83-1.28,1.748-1.22C229.376,139.653,230.081,140.296,230.033,141.03z"/>
			<g>
				<path style="fill:#8B383E;" d="M241.557,133.311c-0.095,0-0.189-0.037-0.26-0.111c-0.999-1.047-2.747-1.002-2.773-1.002
					c-0.195,0.001-0.365-0.15-0.371-0.349c-0.007-0.199,0.149-0.365,0.348-0.371c0.077-0.005,2.099-0.052,3.316,1.225
					c0.137,0.144,0.132,0.372-0.011,0.509C241.736,133.279,241.646,133.311,241.557,133.311z"/>
			</g>
			<g>
				<path style="fill:#8B383E;" d="M227.991,133.311c-0.089,0-0.178-0.032-0.248-0.099c-0.144-0.137-0.149-0.365-0.013-0.509
					c1.218-1.278,3.237-1.229,3.316-1.225c0.199,0.007,0.354,0.173,0.348,0.371c-0.006,0.199-0.18,0.352-0.371,0.349
					c-0.013-0.003-1.784-0.036-2.771,1.002C228.18,133.274,228.086,133.311,227.991,133.311z"/>
			</g>
			<path style="fill:#1A4850;" d="M240.934,137.134c0,0.895-0.403,1.62-0.9,1.62c-0.497,0-0.9-0.726-0.9-1.62
				c0-0.895,0.403-1.62,0.9-1.62C240.532,135.514,240.934,136.239,240.934,137.134z"/>
			<path style="fill:#1A4850;" d="M231.313,137.134c0,0.895-0.403,1.62-0.9,1.62c-0.497,0-0.9-0.725-0.9-1.62
				c0-0.895,0.403-1.62,0.9-1.62C230.91,135.514,231.313,136.24,231.313,137.134z"/>
			<path style="fill:#1A4850;" d="M231.313,146.707c0,0,6.354,0.818,9.622-0.751c0,0-1.848,4.326-5.318,3.938
				C232.146,149.507,231.313,146.707,231.313,146.707z"/>
			<path style="fill:#8B383E;" d="M246.488,140.354c0,0-0.225-7.836-3.276-13.859c0,0-5.378,2.486-6.562,1.899
				c-1.184-0.587,1.128-1.899,1.128-1.899s-8.874,2.926-9.407,2.339c-0.533-0.587,2.941-2.339,2.941-2.339l-5.528,1.899
				c0,0-1.704,7.05-0.999,11.961c0,0-2.375-4.099-2.669-6.93c-0.294-2.831,0.951-10.899,9.277-11.486
				c8.327-0.587,13.003,1.303,15.066,5.126C248.523,130.887,248.267,135.59,246.488,140.354z"/>
			<g>
				<path style="fill:#DB614D;" d="M236.522,144.443c-0.7,0.001-1.411-0.181-1.626-0.241l0.204-0.737
					c0.756,0.209,1.942,0.333,2.201,0.028c0.089-0.106,0.054-0.352-0.099-0.675c-1.041-2.215-1.258-7.822-1.267-8.059l0.766-0.028
					c0.002,0.057,0.219,5.688,1.194,7.761c0.298,0.632,0.294,1.135-0.009,1.495C237.59,144.337,237.059,144.443,236.522,144.443z"/>
			</g>
		</g>
		<path style="fill:#105E99;" d="M244.494,155.222c0,0,13.04,40.48,14.282,73.417c0,0,4.707,1.295,10.006-5.921
			c5.299-7.217,2.147-64.379-8.005-73.897C260.776,148.821,256.17,147.771,244.494,155.222z"/>
		<path style="fill:#0C476B;" d="M246.619,162.301c0,0,2.334-5.423,1.297-9.142s-4.704,0-4.704,0S244.694,159.248,246.619,162.301z"
			/>
		<path style="fill:#0C476B;" d="M220.445,152.288c-9.622-4.143-40.709-15.154-40.709-15.154s-20.951-26.946-25.213-30.831
			c0,0-5.274,2.984-5.631,9.16c0,0,13.161,27.01,20.476,35.259c7.315,8.249,44.362,26.09,44.362,26.09L220.445,152.288z"/>
		<path style="fill:#105E99;" d="M228.013,155.222c0,0-13.04,40.48-14.282,73.417c0,0-4.707,1.295-10.006-5.921
			c-5.299-7.217-2.147-64.379,8.005-73.897C211.73,148.821,216.336,147.771,228.013,155.222z"/>
		<path style="fill:#0C476B;" d="M225.887,162.301c0,0-2.334-5.423-1.297-9.142c1.037-3.719,4.704,0,4.704,0
			S227.813,159.248,225.887,162.301z"/>
		<g>
			<path style="fill:#662C33;" d="M293.938,409.056h-25.891c-1.81-10.292,1.077-20.595,1.077-20.595l11.835-2.032
				c1.077,6.506,2.376,9.071,4.175,10.392c0.011,0,0.011,0,0.011,0c1.31,0.955,2.875,1.266,4.83,1.943
				c2.232,0.777,3.409,2.187,3.997,3.719C295.138,405.525,293.938,409.056,293.938,409.056z"/>
			<path style="fill:#8B383E;" d="M293.972,402.483c-6.384,0.799-20.407,2.165-19.552-1.532c0.711-3.087,6.628-3.919,10.714-4.13
				c0.011,0,0.011,0,0.011,0c1.31,0.955,2.875,1.266,4.83,1.943C292.206,399.541,293.383,400.951,293.972,402.483z"/>
		</g>
		<g>
			<path style="fill:#662C33;" d="M207.227,409.056h-25.891c0,0-0.822-2.42-0.444-4.985c0.311-2.087,1.421-4.275,4.408-5.307
				c2.243-0.777,3.964-1.066,5.374-2.387c1.532-1.443,2.676-4.108,3.642-9.948l11.835,2.032
				C206.151,388.461,209.026,398.764,207.227,409.056z"/>
			<path style="fill:#8B383E;" d="M180.892,404.071c0.311-2.087,1.421-4.275,4.408-5.307c2.243-0.777,3.964-1.066,5.374-2.387
				c3.275,1.01,7.861,2.865,9.282,5.673C201.932,405.902,186.799,405.292,180.892,404.071z"/>
		</g>
	</g>
	<g>
		<g>
			<path style="fill:#164353;" d="M393.107,407.202c0,1.088-0.111,1.854-0.111,1.854h-31.453c0-0.622,0.011-1.243,0.044-1.854
				c0.355-8.227,2.953-15.366,2.953-15.366l7.861-3.375c0.677,4.052,2.42,6.639,4.608,8.327c0.577,0.455,1.177,0.833,1.799,1.155
				c0.289,0.156,0.577,0.3,0.877,0.433c0.655,0.3,1.332,0.544,2.01,0.744c2.776,0.844,5.585,1.021,7.55,1.321
				C392.596,400.962,393.107,404.837,393.107,407.202z"/>
			<path style="fill:#225866;" d="M393.107,407.202c0,1.088-0.111,1.854-0.111,1.854h-31.453c0-0.622,0.011-1.243,0.044-1.854
				H393.107z"/>
			<path style="fill:#225866;" d="M378.806,397.942l-4.363,1.399l-0.922-1.599l3.486-0.955
				C377.585,397.243,378.185,397.62,378.806,397.942z"/>
			<path style="fill:#225866;" d="M381.693,399.119l-2.942,1.954l-1.81-0.711l2.742-1.987
				C380.339,398.675,381.016,398.919,381.693,399.119z"/>
		</g>
		<g>
			<path style="fill:#164353;" d="M272.932,407.202c-0.078,1.066-0.355,1.854-0.355,1.854h-20.95
				c-0.266-0.611-0.455-1.221-0.589-1.854c-2.065-10.026,11.857-22.294,11.857-22.294l4.419,5.896c0,0-0.511,9.437,3.231,11.402
				C272.788,403.382,273.077,405.603,272.932,407.202z"/>
			<path style="fill:#225866;" d="M251.038,407.202h21.894c-0.078,1.066-0.355,1.854-0.355,1.854h-20.95
				C251.36,408.445,251.171,407.834,251.038,407.202z"/>
			<path style="fill:#225866;" d="M269.588,401.454c0,0-8.827-2.012-12.851,0.593v-1.457
				C256.737,400.59,264.161,396.982,269.588,401.454z"/>
			<path style="fill:#225866;" d="M267.839,399.215c0,0-5.636-2.577-11.103,0l0.624-1.47
				C257.361,397.745,263.89,395.276,267.839,399.215z"/>
		</g>
		<path style="fill:#8BBDDB;" d="M383.614,318.07c0.011,8.427-7.472,77.13-7.472,77.13c-7.483,0.744-13.478-0.755-13.478-0.755
			c-2.054-34.818-2.254-64.761-2.254-64.761l-35.861-26.879l-0.089-0.067c0,0-0.133,0.611-0.378,1.699
			c-1.776,7.883-9.293,40.902-12.424,48.463c-3.564,8.616-42.532,44.846-42.532,44.846c-7.239-0.999-13.381-6.242-13.381-6.242
			c13.989-23.204,33.063-46.475,33.063-46.475c1.488-8.36,2.554-26.957,3.187-40.857c0.011-0.211,0.022-0.433,0.033-0.644
			c0.422-9.415,0.633-16.521,0.633-16.521l-6.573-13.479l41.757-15.344l9.359,11.98c0,0,2.143,1.987,5.518,5.163
			c0.155,0.144,0.311,0.289,0.466,0.433C355.724,287.583,383.614,314.295,383.614,318.07z"/>
		<g>
			<path style="fill:#6097B2;" d="M291.996,304.17c0.011-0.211,0.022-0.433,0.033-0.644c8.793-4.774,7.317-12.391,7.294-12.468
				l0.544-0.111C299.889,291.024,301.466,299.207,291.996,304.17z"/>
			<path style="fill:#6097B2;" d="M323.904,297.419c0.3,1.665,0.522,3.464,0.644,5.385l-0.089-0.067c0,0-0.133,0.611-0.378,1.699
				c-0.388-13.057-5.773-20.773-5.84-20.862l0.455-0.322c0.055,0.067,3.453,4.974,5.096,13.534
				c6.351-5.64,0.133-17.198,0.067-17.309l0.488-0.266C324.415,279.333,330.999,291.568,323.904,297.419z"/>
			<path style="fill:#6097B2;" d="M343.189,275.758c-0.011,0.011-0.033,0.011-0.044,0.022c-0.255,0.1-0.555,0.144-0.866,0.144
				c-3.075,0-8.238-4.308-8.482-4.519l0.366-0.422c1.677,1.421,6.351,4.83,8.56,4.341
				C342.879,275.47,343.034,275.614,343.189,275.758z"/>
		</g>
		<path style="fill:#ADBEC4;" d="M289.013,201.658c0,0,12.702-2.044,19.066,2.013c6.364,4.057,14.72,14.646,14.72,14.646
			s-9.921,1.31-11.044,8.049C311.755,226.366,304.549,209.204,289.013,201.658z"/>
		<path style="fill:#CFD8DC;" d="M269.905,208.283c-5.373,2.905-14.354,13.81-14.76,20.516c-0.396,6.541,4.45,12.557,7.716,17.671
			c10.193,15.959,20.925,30.06,25.486,48.778c0.029,0.119,23.315,9.359,50.644-23.491c0,0-15.443-20.777-20.777-38.466
			c-2.171-7.2-4.381-14.849-8.552-21.195c-4.594-6.99-12.463-11.102-20.648-10.439C282.087,202.22,275.198,205.421,269.905,208.283z
			"/>
		<path style="fill:#EF6E4B;" d="M267.65,201.589c0,0,3.436,5.872,1.849,9.101c0,0,11.793,4.071,11.793-2.527
			c0,0-2.223-4.945-1.385-8.142L267.65,201.589z"/>
		<path style="fill:#EF6E4B;" d="M293.854,241.798c0,0-6.56,1.863-8.215,4.185s-3.128,7.531-3.128,7.531h11.343l2.133-3.924
			l2.497-5.23L293.854,241.798z"/>
		<g>
			<path style="fill:#164353;" d="M283.01,195.041c0,0,4.605-1.932,1.626-15.783c-1.974-9.178-4.818-10.546-6.655-10.627
				c0,0-2.248-3.387-10.045-1.766c-5.34,1.111-9.601,4.354-11.477,10.355c-1.958,6.264,1.958,19.691,7.115,21.027L283.01,195.041z"
				/>
			<path style="fill:#FF8B66;" d="M284.099,185.681c0,0,2.902-4.04,3.998-0.058c1.27,4.613-2.682,7.208-3.762,5.852
				C283.256,190.119,284.099,185.681,284.099,185.681z"/>
			<path style="fill:#FF8B66;" d="M259.815,189.938c0,0-4.046-2.893-3.805,1.23c0.279,4.776,4.855,5.964,5.442,4.333
				C262.04,193.87,259.815,189.938,259.815,189.938z"/>
			<path style="fill:#FF8B66;" d="M275.109,204.632c7.708-1.272,11.227-7.024,8.736-22.124c-1.285-7.789-6.036-11.913-14.669-10.488
				c-8.633,1.424-11.481,6.801-10.196,14.591C261.656,202.836,267.146,205.946,275.109,204.632z"/>
			<path style="fill:#DB614D;" d="M262.42,191.575c-0.007,0.797,0.795,1.451,1.792,1.46c0.997,0.009,1.811-0.63,1.818-1.427
				c0.007-0.797-0.795-1.451-1.792-1.46C263.242,190.14,262.428,190.778,262.42,191.575z"/>
			<path style="fill:#DB614D;" d="M278.344,189.382c0.18,0.776,1.114,1.222,2.085,0.997c0.971-0.226,1.611-1.038,1.431-1.815
				c-0.181-0.776-1.114-1.223-2.085-0.997C278.804,187.793,278.163,188.605,278.344,189.382z"/>
			<g>
				<path style="fill:#1A4850;" d="M264.59,183.164c-0.076,0-0.153-0.022-0.22-0.068c-0.178-0.121-0.224-0.364-0.103-0.542
					c1.078-1.581,3.241-1.884,3.333-1.897c0.227-0.025,0.409,0.123,0.438,0.335c0.028,0.214-0.121,0.41-0.335,0.439
					c-0.02,0.002-1.913,0.273-2.79,1.562C264.837,183.105,264.714,183.164,264.59,183.164z"/>
			</g>
			<g>
				<path style="fill:#1A4850;" d="M279.102,180.77c-0.082,0-0.165-0.025-0.235-0.079c-1.248-0.942-3.123-0.587-3.141-0.583
					c-0.215,0.047-0.416-0.095-0.459-0.307c-0.042-0.211,0.095-0.417,0.307-0.459c0.09-0.017,2.236-0.427,3.763,0.725
					c0.172,0.13,0.206,0.375,0.077,0.547C279.337,180.716,279.22,180.77,279.102,180.77z"/>
			</g>
			<path style="fill:#1A4850;" d="M265.994,187.138c0.158,0.957,0.717,1.663,1.249,1.575c0.532-0.088,0.835-0.935,0.677-1.892
				c-0.158-0.957-0.717-1.662-1.249-1.574C266.139,185.334,265.836,186.181,265.994,187.138z"/>
			<path style="fill:#1A4850;" d="M276.287,185.44c0.158,0.957,0.717,1.662,1.249,1.574c0.532-0.088,0.835-0.935,0.677-1.892
				c-0.158-0.957-0.717-1.662-1.249-1.574C276.432,183.636,276.129,184.483,276.287,185.44z"/>
			<path style="fill:#1A4850;" d="M279.177,194.131c0,0-6.686,1.794-10.395,1.081c0,0,2.563,3.228,6.223,2.297
				C278.664,196.579,279.177,194.131,279.177,194.131z"/>
			<path style="fill:#0E3944;" d="M279.493,175.501c0,0-8.7,6.299-19.62,6.779l0.309,9.721c0,0-10.178-18.754,9.953-22.075
				c20.13-3.321,14.271,17.626,14.271,17.626S283.781,178.517,279.493,175.501z"/>
			<g>
				<path style="fill:#DB614D;" d="M272.377,191.519l-0.055-0.84c0.012-0.001,1.173-0.091,1.475-0.81
					c0.125-0.296-0.37-1.24-0.807-2.072c-0.606-1.157-1.36-2.596-1.681-4.195l0.826-0.166c0.296,1.481,1.019,2.861,1.6,3.97
					c0.647,1.235,1.115,2.127,0.837,2.789C274.068,191.396,272.446,191.515,272.377,191.519z"/>
			</g>
			<path style="fill:#CE364C;" d="M284.213,175.525c-14.633-6.351-28.445,6.817-28.445,6.817s-1.61-10.67,1.21-13.168
				c0.733-0.655,1.521-1.232,2.343-1.743c6.462-4.075,15.055-3.997,18.996-2.598c0.81,0.289,1.432,0.633,1.788,0.999
				C282.436,168.252,284.213,175.525,284.213,175.525z"/>
			<path style="fill:#CFD8DC;" d="M282.436,173.148c0,0-12.291-2.431-23.748,5.152c0,0-0.733-6.884,0.633-10.869
				c6.462-4.075,15.055-3.997,18.996-2.598C280.615,167.453,282.436,173.148,282.436,173.148z"/>
			<path style="fill:#A02E44;" d="M256.978,181.087c0,0,1.949-8.275,4.574-10.606c4.366-3.877,16.636-5.209,23.085-2.878
				s0,9.377,0,9.377S274.358,169.618,256.978,181.087z"/>
		</g>
		<path style="fill:#FF8B66;" d="M275.956,236.074c0,0,5.023,7.78,13.577,12.357c0,0,10.702-9.289,24.577-8.453
			c0,0-11.5,20.748-21.375,23.046c-5.189,1.207-23.953-11.218-23.953-11.218S272.528,238.6,275.956,236.074z"/>
		<path style="fill:#ADBEC4;" d="M257.459,221.969c4.597-7.483,15.201,3.579,18.81,11.479c3.609,7.901,6.243,9.576,6.243,9.576
			s-10.596,4.426-10.52,12.368C271.991,255.392,247.428,238.298,257.459,221.969z"/>
		<path style="fill:#EF6E4B;" d="M289.533,245.013c0,0,6.454-6.332,27.676-14.596l-2.741-8.62c2.434-3.204,6.91-3.204,6.91-3.204
			s10.873,15.354,9.001,19.94C329.211,241.398,306.532,244.404,289.533,245.013z"/>
		<path style="fill:#FF8B66;" d="M312.775,232.485c0,0,0.167-0.907,0.952-2.014c0.784-1.107,0.572-3.122,0.853-3.747
			c0.281-0.624,1.951-3.177,3.059-3.673c1.108-0.497,2.562-1.309,2.871,0.098c0.309,1.406-1.985,1.008-3.015,3.031
			c0,0,2.254-0.729,4.042-0.306c1.788,0.423,2.294,2.057,0.085,2.003c-1.762-0.043-4.031,1.213-4.031,1.213s2.296,0.345,1.926,1.404
			C319.003,231.957,316.203,231.056,312.775,232.485z"/>
	</g>
	<g>
		<path style="fill:#3E6575;" d="M155.819,261.392c1.897,4.857,9.668,13.184,9.668,13.184s18.984-11.38,27.742-6.592
			c8.758,4.788,15.718,7.709,21.398,5.624c5.68-2.085-18.676-46.38-18.676-46.38l-31.578-12.05c0,0-0.689,7.987-4.297,9.406
			c-3.608,1.419-7.455,14.603-7.197,17.101C153.136,244.183,155.819,261.392,155.819,261.392z"/>
		<path style="fill:#EF6E4B;" d="M191.349,274.865c0,0-8.143,15.962-24.954,36.404c0,0-1.723,24.309-46.179,62.556l-4.654-3.661
			c0,0,26.475-41.471,31.77-54.186c5.296-12.715-2.927-24.365,21.435-56.526L191.349,274.865z"/>
		<path style="fill:#662C33;" d="M165.432,246.62c-7.009,13.427-9.362,30.593-9.362,30.593l-3.192,8.053
			c0,0,11.322,6.106,24.396,8.327l5.243-13.878L165.432,246.62z"/>
		<path style="fill:#FF8B66;" d="M201.991,273.608c0,0,3.471,17.579,2.899,44.04c0,0,13.678,20.17,2.39,77.718h-5.921
			c0,0-4.837-48.962-8.538-62.23c-3.701-13.267-17.367-17.338-18.107-57.678L201.991,273.608z"/>
		<g>
			<path style="fill:#8B383E;" d="M205.462,292.479c0,0-11.136,1.999-30.754,1.077l-0.311-2.209l-0.078-0.566l-2.032-14.3
				c0,0-1.887-2.332-3.83-6.129c-0.233-0.444-0.455-0.899-0.677-1.377c-2.643-5.629-4.985-13.812-2.354-22.349l4.141,0.189
				l0.577,0.033l13.856,0.633l0.588,0.033l4.552,0.211l0.71,0.033l2.953,0.133c0,0,15.011,13.512,12.335,38.493l0.189,3.475
				l0.022,0.566L205.462,292.479z"/>
			<g>
				<path style="fill:#662C33;" d="M170.145,246.847c-0.389,1.144-3.009,9.626-1.688,23.504c-0.233-0.444-0.455-0.899-0.677-1.377
					c-0.988-12.69,1.288-20.606,1.787-22.161c0.067-0.189,0.1-0.277,0.1-0.289l0.522,0.189
					C170.189,246.725,170.167,246.77,170.145,246.847z"/>
				<path style="fill:#662C33;" d="M205.351,290.425c-3.941,1.01-10.625,1.288-16.976,1.288c-5.696,0-11.103-0.233-13.978-0.366
					l-0.078-0.566c4.985,0.244,18.108,0.755,26.568-0.167l-0.544-8.938c0.133-10.425-3.02-19.329-6.062-25.48
					c-7.705-1.399-9.826-7.106-10.281-8.716c-0.067-0.255-0.1-0.411-0.1-0.422l0.544-0.089c0,0.011,0.044,0.211,0.144,0.544
					c0.5,1.665,2.565,6.628,9.371,8.049c-2.054-4.008-3.997-6.75-4.818-7.838c-0.244-0.333-0.4-0.522-0.411-0.533l0.422-0.355
					c0.022,0.022,0.278,0.333,0.699,0.921c2.576,3.497,11.269,16.654,11.047,33.896l0.544,8.893c1.477-0.178,2.798-0.4,3.886-0.688
					L205.351,290.425z"/>
			</g>
		</g>
		<path style="fill:#8BBDDB;" d="M176.984,186.385c-4.419-2.434-36.262,10.054-36.262,10.054s-4.711,8.403-1.774,11.698
			c2.937,3.295,13.356,1.842,16.548,0c3.192-1.842,11.647-3.236,11.647-3.236L176.984,186.385z"/>
		<path style="fill:#F24052;" d="M205.143,159.876c0,0,6.578,2.539,8.984,10.117c2.406,7.578-4.787,26.764-2.301,35.583
			c2.486,8.819,2.1,25.473-5.664,28.989c-7.764,3.516-23.687-2.776-27.105-12.398c-3.419-9.622-1.943-46.076,4.628-58.473
			C190.257,151.295,203.561,157.539,205.143,159.876z"/>
		<path style="fill:#8BBDDB;" d="M197.584,192.572c1.735,1.87,6.195-1.463,6.195-1.463s-0.091,16.537-4.897,17.805
			c-4.806,1.268-17.055-13.027-16.551-16.912C182.835,188.115,193.737,188.424,197.584,192.572z"/>
		<path style="fill:#0E3944;" d="M179.057,188.436c0,0,4.862,4.128,13.331,6.091c8.47,1.963,13.06-2.019,17.391,3.442
			c6.501,8.197-4.076,23.308-9.641,31.139c-2.075,2.919-6.453,11.017-7.338,18.785c0,0-14.696,4.269-27.369-1.273l-0.946-18.029
			C164.486,228.591,156.497,204.294,179.057,188.436z"/>
		<path style="fill:#8BBDDB;" d="M194.251,205.976c0,0,6.715-16.003,8.66-17.025c1.945-1.022,6.876,1.431,7.866,3.62
			c0.99,2.189,0,6.964,0,6.964S205.481,193.491,194.251,205.976z"/>
		<path style="fill:#6097B2;" d="M226.413,273.604c-3.053,6.251-10.548,8.049-10.548,8.049s-0.566-0.866-1.521-2.42
			c-0.1-0.155-0.211-0.333-0.311-0.511c-5.896-9.559-23.915-40.147-23.56-56.057c0.411-19.008,12.812-29.444,12.812-29.444
			c6.295,1.499,8.283,3.22,8.283,3.22s2.121,10.814,0.178,23.826c-1.943,13.001-5.474,16.443-3.697,17.42
			c1.765,0.966,0,2.909,0,2.909s10.447,14.555,12.402,19.085c1.266,2.953,3.42,7.972,4.763,11.103
			c0.089,0.222,0.178,0.444,0.266,0.644C226.046,272.75,226.413,273.604,226.413,273.604z"/>
		<path style="fill:#FF8B66;" d="M208.266,196.439c0,0-7.48,5.545-3.122,14.017l20.734,21.465
			c-11.38,12.126-12.508,17.105-20.734,22.695l3.122,4.836c0,0,28.81-22.142,28.853-27.531
			C237.137,229.614,219.521,201.706,208.266,196.439z"/>
		<path style="fill:#FF8B66;" d="M204.689,254.618c0,0-3.952,0.438-6.441,1.061c-2.489,0.622-5.807,1.244-5.911,1.763
			c-0.104,0.518,5.496,0,5.496,0s-4.563,1.874-4.666,2.596s5.807-0.522,5.807-0.522s-3.733,2.281-3.526,2.903
			c0.207,0.622,4.806-0.933,4.806-0.933s-0.855,2.177-1.742,3.214c0,0,0.891,0.489,2.698-1.518c1.807-2.008,4.693-1.363,6.978-3.144
			C210.472,258.256,206.769,254.35,204.689,254.618z"/>
		<path style="fill:#6097B2;" d="M183.502,191.099c0,0-5.691,3.677-9.285,12.559c-3.594,8.882-14.935,25.596-17.592,29.915
			c-2.657,4.318-0.806,27.819-0.806,27.819s-3.331-14.248-4.811-19.8c-1.48-5.551,4.78-19.269,5.721-19.997
			c0.941-0.728,5.752,0.604,4.827-4.965s11.983-29.569,15.429-30.245C176.984,186.385,182.504,187.422,183.502,191.099z"/>
		<path style="fill:#6097B2;" d="M165.904,192.3c-0.1,0.189-0.211,0.378-0.344,0.555c-1.288,1.854-3.686,3.331-3.686,3.331
			s-4.341,6.084-4.385,6.784c-0.044,0.6-7.539,6.04-10.869,5.929h-0.011c-0.455-0.011-0.833-0.133-1.099-0.378
			c-1.976-1.865,6.728-17.52,8.649-20.895c0.122-0.222,0.222-0.389,0.289-0.5c0.044-0.089,0.078-0.144,0.078-0.144
			s-1.532-5.707,4.863-4.641c5.318,0.877,6.373,5.107,6.928,7.938C166.448,190.957,166.259,191.645,165.904,192.3z"/>
		<path style="fill:#FF8B66;" d="M143.574,198.216c4.393-5.775,19.851-16.975,27.993-20.29l2.035,3.784
			c0,0-15.733,13.832-19.429,19.749c-3.696,5.917-8.275,8.364-12.649,6.394C137.149,205.882,142.65,199.432,143.574,198.216z"/>
		<path style="fill:#8BBDDB;" d="M164.372,191.113l-0.833,0.955l-0.422,0.488l-1.377,1.577c0,0-3.464,4.197-3.331,5.884
			c0.1,1.21-6.573,6.628-11.791,8.882c-2.121,0.921-4.008,1.321-5.107,0.688c-3.775-2.176-2.931-8.715-0.788-13.145
			c1.865-3.864,10.114-8.849,12.235-10.07c0.266-0.167,0.433-0.266,0.488-0.289c0.011-0.011,0.011-0.011,0.011-0.011l0.788-3.064
			c0,0,2.876-1.732,5.141-0.666c0,0-4.996,0.211-4.174,2.154C156.056,186.449,162.984,191.046,164.372,191.113z"/>
		<g>
			<path style="fill:#FF8B66;" d="M182.513,175.092c-5.029,2.065-4.308,6.617-8.915,6.617c-2.853,0-3.231-3.264-3.231-3.264
				c1.288-2.787,2.109-7.539,2.287-9.804c0.189-2.265,0.944-1.388,0.944-1.388c0-0.211-0.011-0.411-0.022-0.611
				c-0.067-1.521-0.344-2.631,0.655-1.976c1.132,0.733,1.521,5.041,1.521,5.041c0.933-6.284-0.455-7.217,0.633-6.662
				c1.488,0.755,1.499,6.306,1.499,6.473c1.199-3.653,0.877-5.74,1.71-4.907c0.844,0.844-0.422,7.55-0.921,10.015
				c-0.111,0.555-0.189,0.899-0.189,0.899C182.469,173.57,182.513,175.092,182.513,175.092z"/>
			<path style="fill:#EF6E4B;" d="M178.672,174.625c-0.111,0.555-0.189,0.899-0.189,0.899s-1.843-0.178-3.186,1.81
				C175.297,177.334,175.674,174.67,178.672,174.625z"/>
			<path style="fill:#EF6E4B;" d="M173.875,171.761c0.033-0.533,0.255-3.586-0.277-4.508c0-0.211-0.011-0.411-0.022-0.611
				C174.73,166.887,173.998,171.117,173.875,171.761z"/>
		</g>
		<path style="fill:#8BBDDB;" d="M176.996,198.248c0,0,3.399-9.212,4.48-11.268c1.082-2.057,6.713-1.704,10.975-0.909
			c4.262,0.795,5.133,6.501,5.133,6.501S184.618,186.453,176.996,198.248z"/>
		<path style="fill:#EF6E4B;" d="M198.882,180.118c0,0-4.072,7.519-4.008,15.857c0,0-6.614,4.495-8.981-1.135
			c0,0,2.512-7.376,1.298-17.333C186.379,170.839,198.882,180.118,198.882,180.118z"/>
		<g>
			<path style="fill:#FF8B66;" d="M185.894,169.685c0,0-1.21-4.31-3.364-1.28c-2.495,3.51,0.048,6.922,1.379,6.108
				C185.24,173.699,185.894,169.685,185.894,169.685z"/>
			<path style="fill:#FF8B66;" d="M205.12,180.767c0,0,4.313-1.2,2.839,2.212c-1.708,3.953-5.944,3.548-5.938,1.988
				C202.027,183.408,205.12,180.767,205.12,180.767z"/>
			<path style="fill:#FF8B66;" d="M187.659,188.483c-6.127-3.45-7.331-9.399-0.572-21.402c3.486-6.191,8.775-8.215,15.637-4.351
				c6.863,3.865,7.614,9.289,4.128,15.481C199.589,191.108,193.988,192.047,187.659,188.483z"/>
			<path style="fill:#DB614D;" d="M202.412,181.349c-0.239,0.676-1.119,0.982-1.965,0.683c-0.846-0.299-1.337-1.09-1.098-1.767
				c0.239-0.676,1.119-0.982,1.965-0.682C202.16,179.882,202.651,180.673,202.412,181.349z"/>
			<path style="fill:#DB614D;" d="M189.621,174.589c-0.392,0.601-1.319,0.691-2.07,0.201c-0.751-0.49-1.043-1.375-0.651-1.975
				c0.392-0.601,1.319-0.691,2.07-0.201C189.722,173.103,190.013,173.988,189.621,174.589z"/>
			<g>
				<path style="fill:#1A4850;" d="M203.289,173.589c-0.157,0-0.3-0.106-0.34-0.265c-0.347-1.367-1.862-2.172-1.877-2.179
					c-0.172-0.09-0.239-0.302-0.149-0.474c0.089-0.172,0.3-0.239,0.474-0.149c0.074,0.038,1.81,0.962,2.233,2.63
					c0.048,0.188-0.066,0.379-0.254,0.427C203.346,173.585,203.317,173.589,203.289,173.589z"/>
			</g>
			<g>
				<path style="fill:#1A4850;" d="M194.875,167.603c-0.062,0-0.124-0.016-0.181-0.05c-0.015-0.009-1.491-0.886-2.838-0.475
					c-0.187,0.057-0.382-0.048-0.439-0.234c-0.056-0.185,0.048-0.382,0.234-0.439c1.648-0.505,3.336,0.503,3.407,0.546
					c0.166,0.1,0.219,0.316,0.118,0.482C195.11,167.543,194.994,167.603,194.875,167.603z"/>
			</g>
			<path style="fill:#1A4850;" d="M200.757,176.497c-0.429,0.761-1.119,1.185-1.541,0.946c-0.423-0.238-0.418-1.048,0.01-1.809
				c0.428-0.761,1.119-1.185,1.541-0.947C201.19,174.926,201.186,175.735,200.757,176.497z"/>
			<path style="fill:#1A4850;" d="M192.167,171.889c-0.428,0.761-1.118,1.185-1.541,0.946c-0.423-0.238-0.418-1.047,0.01-1.808
				c0.428-0.761,1.118-1.185,1.541-0.947C192.6,170.318,192.595,171.128,192.167,171.889z"/>
			<path style="fill:#1A4850;" d="M189.191,179.701c0,0,3.515,2.682,6.055,2.764c0,0-2.701,2.2-4.643,0.773
				C188.662,181.811,189.191,179.701,189.191,179.701z"/>
			<path style="fill:#1A4850;" d="M198.91,174.959c0,0,1.613-1.56,2.274-1.011c0.66,0.549,0.315,2.469,0.315,2.469l1.412,0.036
				l-1.167-0.47c0,0,0.376-1.993-0.35-2.406C200.36,172.988,198.91,174.959,198.91,174.959z"/>
			<path style="fill:#1A4850;" d="M192.832,171.838c0,0,0.497-2.188-0.315-2.468c-0.812-0.28-2.274,1.011-2.274,1.011l-0.763-1.189
				l1.008,0.755c0,0,1.509-1.355,2.239-0.949C193.766,169.577,192.832,171.838,192.832,171.838z"/>
			<path style="fill:#F24052;" d="M204.351,165.296c0,0-2.195-3.05-5.226-0.628c-3.031,2.422-9.868,6.298-13.231,5.017
				c-3.364-1.28,7.358-15.61,16.667-11.414c9.309,4.197,8.471,17.857,4.599,22.2c-3.872,4.343-2.04,0.297-2.04,0.297
				s0.259-6.162,1.552-10.245C207.966,166.439,204.351,165.296,204.351,165.296z"/>
			<g>
				<path style="fill:#DB614D;" d="M194.033,178.304c-0.17,0-0.348-0.023-0.531-0.069l0.187-0.735
					c0.626,0.159,0.934-0.11,1.081-0.363c0.209-0.358,0.18-0.819,0.014-0.992c-0.097-0.101-0.262-0.09-0.494,0.031l-0.351-0.672
					c0.771-0.404,1.232-0.053,1.394,0.118c0.417,0.438,0.458,1.271,0.092,1.897C195.127,178.028,194.627,178.304,194.033,178.304z"
					/>
			</g>
		</g>
		<g>
			<path style="fill:#8BBDDB;" d="M238.903,231.071c-0.366,5.385-13.689,22.916-15.91,23.537c-0.577,0.155-1.166,0.477-1.721,0.855
				c-0.233,0.167-0.466,0.344-0.688,0.522c-1.266,1.021-2.22,2.198-2.22,2.198c-3.886-0.255-14.8-5.307-11.291-6.417
				c0.211-0.067,0.444-0.189,0.699-0.366c0.144-0.1,0.3-0.211,0.455-0.355c4.13-3.464,12.168-17.52,12.224-18.586
				c0.044-1.166,1.432-1.388,1.432-1.388s-7.583-11.136-11.98-12.479c-4.397-1.343-6.617-6.661-6.617-6.661
				c-4.341-18.375,8.283-15.488,8.283-15.488C220.873,201.982,239.269,225.675,238.903,231.071z"/>
			<g>
				<path style="fill:#3E6575;" d="M221.272,255.463c-0.233,0.167-0.466,0.344-0.688,0.522c-5.962-0.411-10.958-3.342-12.812-4.585
					c0.144-0.1,0.3-0.211,0.455-0.355C210.214,252.343,215.299,255.241,221.272,255.463z"/>
			</g>
		</g>
		<g>
			<path style="fill:#3E6575;" d="M165.904,192.3c-0.1,0.189-0.211,0.378-0.344,0.555c-0.855-0.033-1.665-0.133-2.443-0.3
				c-3.941-0.799-6.972-3.009-8.96-4.93c-0.455-0.444-0.855-0.866-1.199-1.255c0.266-0.167,0.433-0.266,0.488-0.289
				c0.289,0.322,0.622,0.677,0.999,1.044c1.976,1.943,5.052,4.208,9.093,4.941C164.294,192.212,165.082,192.289,165.904,192.3z"/>
		</g>
		<g>
			<path style="fill:#3E6575;" d="M225.48,271.428c-1.832,3.098-5.218,6.839-11.136,7.805c-0.1-0.155-0.211-0.333-0.311-0.511
				c6.073-0.911,9.437-4.852,11.18-7.938C225.302,271.007,225.391,271.228,225.48,271.428z"/>
		</g>
		<g>
			<path style="fill:#CFD8DC;" d="M124.436,372.451c0,0-1.388,1.366-2.831,3.875c-1.443,2.509,0.144,4.819-6.839,10.636
				c0,0-14.089-8.249-20.451-18.852c0,0,0.111-3.031,3.186-3.742c1.654-0.378,6.206,1.754,10.581,2.576
				c0.622,0.111,1.243,0.211,1.854,0.255c0.766,0.067,1.521,0.078,2.243-0.011c0.666-0.067,1.299-0.211,1.887-0.455h0.011
				c1.488-0.611,2.665-1.821,3.275-3.941c0,0,3.741,2.132,1.243,5.74C118.596,368.531,123.037,366.588,124.436,372.451z"/>
			<path style="fill:#ADBEC4;" d="M114.765,386.962c0,0-14.089-8.249-20.451-18.852c0,0,2.365-0.5,4.319,3.009
				C100.587,374.638,115.909,382.621,114.765,386.962z"/>
			<path style="fill:#ADBEC4;" d="M114.821,370.285c-1.143,1.81-1.121-1.532-2.642-3.098c0.666-0.067,1.299-0.211,1.887-0.455h0.011
				C114.754,367.466,115.72,368.875,114.821,370.285z"/>
			<path style="fill:#ADBEC4;" d="M110.391,370.385c-1.21,1.144-1.599-1.843-2.309-3.442c0.622,0.111,1.243,0.211,1.854,0.255
				C110.646,368.165,111.313,369.508,110.391,370.385z"/>
		</g>
		<g>
			<path style="fill:#CFD8DC;" d="M211.113,409.056h-19.929c0,0-0.833-2.776,0-5.829c0.355-1.321,2.42-2.554,4.341-4.275
				c0.533-0.477,1.044-0.977,1.521-1.543c0.378-0.444,0.722-0.933,1.01-1.454c0.366-0.633,0.655-1.321,0.822-2.076
				c0.322-1.51,0.2-3.286-0.666-5.418c0,0,6.784-1.421,9.204,2.276c0,0,0.233-1.71,2.387-0.566c0,0-0.311,3.431,0.111,6.306
				C210.336,399.341,213.012,400.174,211.113,409.056z"/>
			<path style="fill:#ADBEC4;" d="M205.928,397.054c-0.178,0.2-0.422,0.3-0.666,0.3c-0.211,0-0.411-0.067-0.589-0.2
				c-1.032-0.822-3.308-2.098-6.617-1.199c0.366-0.633,0.655-1.321,0.822-2.076c1.332-0.488,3.841-0.777,6.939,1.865
				C206.217,396.077,206.273,396.665,205.928,397.054z"/>
			<path style="fill:#ADBEC4;" d="M204.252,400.362l-0.111,0.167c-0.266,0.411-0.799,0.544-1.221,0.3
				c-1.355-0.799-4.397-2.309-7.394-1.876c0.533-0.477,1.044-0.977,1.521-1.543c1.477-0.344,4.263-0.533,7.006,1.743
				C204.408,399.452,204.507,399.974,204.252,400.362z"/>
		</g>
	</g>
</g>
<g id="DESIGNED_BY_FREEPIK">
	<g>
		<g id="XMLID_319_">
			<g id="XMLID_338_">
				<path id="XMLID_346_" style="fill:#A3B5C4;" d="M260.104,465.466c-0.433,0.442-0.804,0.931-1.108,1.453l-0.466-0.241
					c-0.066-0.298-0.349-0.503-0.658-0.467c-0.331,0.039-0.568,0.339-0.529,0.67c0.039,0.331,0.339,0.567,0.67,0.529
					c0.065-0.008,0.127-0.026,0.184-0.053l0.451,0.234c-0.251,0.554-0.433,1.139-0.539,1.744l0.746,0.131
					c0.23-1.306,0.85-2.506,1.792-3.472L260.104,465.466z"/>
				<path id="XMLID_345_" style="fill:#A3B5C4;" d="M265.592,463.163c-0.171,0-0.341,0.006-0.51,0.018l-0.073-0.627
					c0.188-0.148,0.296-0.389,0.266-0.645c-0.046-0.393-0.402-0.674-0.796-0.628c-0.392,0.047-0.674,0.402-0.628,0.796
					c0.03,0.254,0.19,0.461,0.405,0.563l0.073,0.624c-0.714,0.116-1.403,0.332-2.06,0.646l0.327,0.684
					c0.934-0.447,1.941-0.674,2.995-0.674c0.496,0,0.993,0.054,1.475,0.158l0.161-0.741
					C266.692,463.222,266.143,463.163,265.592,463.163z"/>
				<path id="XMLID_344_" style="fill:#A3B5C4;" d="M272.194,465.711c0.331-0.041,0.566-0.342,0.525-0.673
					c-0.04-0.331-0.342-0.566-0.672-0.525c-0.31,0.038-0.535,0.304-0.53,0.608l-0.416,0.363c-0.418-0.43-0.89-0.813-1.408-1.139
					l-0.403,0.641c1.134,0.715,2.02,1.727,2.563,2.926l0.691-0.313c-0.251-0.555-0.567-1.072-0.942-1.545l0.402-0.352
					C272.064,465.716,272.129,465.719,272.194,465.711z"/>
				<path id="XMLID_343_" style="fill:#A3B5C4;" d="M265.044,473.372c-0.386,0.023-0.774,0.034-1.157,0.034
					c-0.88,0-1.732-0.061-2.478-0.179c-0.391-0.063-0.847-0.155-1.27-0.292c1.046,1.86,3.069,3.125,5.389,3.125
					c2.855,0,5.262-1.916,5.949-4.504c-0.682,0.449-1.506,0.825-2.459,1.122C267.839,473.047,266.464,473.286,265.044,473.372z"/>
				<path id="XMLID_339_" style="fill:#A3B5C4;" d="M265.592,464.68c-3.353,0-6.079,2.666-6.079,5.943
					c0,0.426,0.046,0.849,0.137,1.262c0.674,0.482,2.706,0.89,5.348,0.73c2.879-0.173,5.297-0.957,6.672-2.158
					c-0.005-0.195-0.021-0.391-0.045-0.582C271.244,466.913,268.65,464.68,265.592,464.68z M263.433,471.194
					c-1.021,0-1.85-0.83-1.85-1.85c0-1.02,0.829-1.85,1.85-1.85c1.02,0,1.85,0.83,1.85,1.85
					C265.282,470.364,264.452,471.194,263.433,471.194z M268.17,470.286c-0.75,0-1.36-0.61-1.36-1.36s0.61-1.36,1.36-1.36
					s1.36,0.61,1.36,1.36S268.92,470.286,268.17,470.286z"/>
			</g>
			<path id="XMLID_336_" style="fill:#A3B5C4;" d="M281.596,466.547c-0.295-0.116-0.806-0.31-1.383-0.237
				c-0.551,0.068-0.844,0.34-0.844,1.006v0.866h2.227v1.718h-2.227v5.454h-1.932V469.9h-1.34v-1.718h1.34v-0.888
				c0-1.681,0.895-2.783,2.568-2.783c0.643,0,1.157,0.122,1.59,0.309V466.547z"/>
			<path id="XMLID_334_" style="fill:#A3B5C4;" d="M286.298,469.879c-0.177-0.03-0.357-0.047-0.526-0.047
				c-0.896,0-1.51,0.548-1.51,1.614v3.907h-1.932v-7.172h1.873v0.785c0.451-0.674,1.14-0.978,2.021-0.978
				c0.414,0,0.848,0.128,1.094,0.337L286.298,469.879z"/>
			<path id="XMLID_331_" style="fill:#A3B5C4;" d="M293.965,471.757c0,0.222-0.015,0.488-0.037,0.651h-5.084
				c0.207,1.036,0.933,1.487,1.843,1.487c0.621,0,1.295-0.251,1.814-0.688l1.132,1.243c-0.814,0.747-1.851,1.088-3.057,1.088
				c-2.198,0-3.723-1.495-3.723-3.753c0-2.257,1.48-3.797,3.626-3.797C292.544,467.989,293.958,469.522,293.965,471.757z
				 M288.851,471.091h3.175c-0.177-0.918-0.732-1.437-1.561-1.437C289.554,469.654,289.02,470.202,288.851,471.091z"/>
			<path id="XMLID_328_" style="fill:#A3B5C4;" d="M301.618,471.757c0,0.222-0.015,0.488-0.037,0.651h-5.084
				c0.207,1.036,0.932,1.487,1.843,1.487c0.621,0,1.295-0.251,1.813-0.688l1.132,1.243c-0.814,0.747-1.851,1.088-3.057,1.088
				c-2.198,0-3.723-1.495-3.723-3.753c0-2.257,1.48-3.797,3.626-3.797C300.197,467.989,301.611,469.522,301.618,471.757z
				 M296.504,471.091h3.176c-0.178-0.918-0.733-1.437-1.563-1.437C297.207,469.654,296.674,470.202,296.504,471.091z"/>
			<path id="XMLID_325_" style="fill:#A3B5C4;" d="M309.964,471.765c0,2.153-1.495,3.774-3.471,3.774
				c-0.963,0-1.644-0.378-2.109-0.933v3.708h-1.925v-10.133h1.888v0.792c0.466-0.584,1.154-0.984,2.139-0.984
				C308.469,467.989,309.964,469.61,309.964,471.765z M304.287,471.765c0,1.132,0.748,1.976,1.843,1.976
				c1.14,0,1.851-0.881,1.851-1.976c0-1.096-0.711-1.977-1.851-1.977C305.035,469.788,304.287,470.632,304.287,471.765z"/>
			<path id="XMLID_322_" style="fill:#A3B5C4;" d="M313.067,465.836c0,0.695-0.54,1.229-1.235,1.229
				c-0.696,0-1.229-0.533-1.229-1.229c0-0.696,0.533-1.244,1.229-1.244C312.527,464.592,313.067,465.14,313.067,465.836z
				 M312.809,475.354h-1.932v-7.172h1.932V475.354z"/>
			<path id="XMLID_320_" style="fill:#A3B5C4;" d="M316.032,470.735l2.701-2.554h2.369l-3.48,3.375l3.501,3.797h-2.376l-2.716-2.901
				v2.901h-1.932v-10.657h1.932V470.735z"/>
		</g>
		<g>
			<path style="fill:#A3B5C4;" d="M184.413,475.289v-1.055c-0.527,0.718-1.392,1.23-2.388,1.23c-1.846,0-3.149-1.406-3.149-3.706
				c0-2.256,1.289-3.721,3.149-3.721c0.952,0,1.816,0.469,2.388,1.245v-3.765h1.099v9.771H184.413z M184.413,473.37v-3.208
				c-0.396-0.615-1.245-1.143-2.124-1.143c-1.421,0-2.27,1.172-2.27,2.739c0,1.567,0.85,2.725,2.27,2.725
				C183.167,474.483,184.017,473.985,184.413,473.37z"/>
			<path style="fill:#A3B5C4;" d="M186.932,471.744c0-2.051,1.465-3.706,3.486-3.706c2.139,0,3.398,1.67,3.398,3.794v0.278h-5.728
				c0.088,1.333,1.025,2.446,2.549,2.446c0.806,0,1.626-0.322,2.183-0.894l0.527,0.718c-0.703,0.703-1.655,1.084-2.813,1.084
				C188.44,475.465,186.932,473.956,186.932,471.744z M190.403,468.946c-1.509,0-2.256,1.274-2.314,2.358h4.644
				C192.718,470.25,192.015,468.946,190.403,468.946z"/>
			<path style="fill:#A3B5C4;" d="M194.607,474.352l0.571-0.791c0.469,0.542,1.362,1.011,2.329,1.011c1.084,0,1.67-0.513,1.67-1.216
				c0-1.714-4.38-0.659-4.38-3.281c0-1.099,0.952-2.036,2.637-2.036c1.201,0,2.051,0.454,2.622,1.025l-0.513,0.762
				c-0.424-0.513-1.201-0.893-2.109-0.893c-0.967,0-1.567,0.483-1.567,1.113c0,1.553,4.379,0.527,4.379,3.281
				c0,1.186-0.952,2.139-2.783,2.139C196.306,475.465,195.325,475.113,194.607,474.352z"/>
			<path style="fill:#A3B5C4;" d="M201.477,466.471c0-0.41,0.337-0.747,0.732-0.747c0.41,0,0.747,0.337,0.747,0.747
				c0,0.41-0.337,0.732-0.747,0.732C201.814,467.203,201.477,466.881,201.477,466.471z M201.667,475.289v-7.075h1.099v7.075H201.667
				z"/>
			<path style="fill:#A3B5C4;" d="M204.582,477.105l0.557-0.82c0.586,0.703,1.289,0.967,2.3,0.967c1.172,0,2.27-0.571,2.27-2.124
				v-1.011c-0.512,0.718-1.376,1.26-2.373,1.26c-1.845,0-3.149-1.377-3.149-3.662c0-2.271,1.289-3.677,3.149-3.677
				c0.952,0,1.802,0.469,2.373,1.245v-1.069h1.099v6.87c0,2.344-1.641,3.076-3.369,3.076
				C206.237,478.16,205.417,477.926,204.582,477.105z M209.708,473.253v-3.091c-0.381-0.615-1.23-1.143-2.109-1.143
				c-1.421,0-2.271,1.128-2.271,2.695c0,1.553,0.849,2.695,2.271,2.695C208.478,474.41,209.328,473.868,209.708,473.253z"/>
			<path style="fill:#A3B5C4;" d="M217.413,475.289v-4.629c0-1.245-0.629-1.641-1.581-1.641c-0.865,0-1.685,0.527-2.095,1.099v5.171
				h-1.099v-7.075h1.099v1.025c0.498-0.586,1.464-1.201,2.519-1.201c1.48,0,2.256,0.747,2.256,2.285v4.966H217.413z"/>
			<path style="fill:#A3B5C4;" d="M219.933,471.744c0-2.051,1.465-3.706,3.486-3.706c2.138,0,3.398,1.67,3.398,3.794v0.278h-5.728
				c0.088,1.333,1.025,2.446,2.549,2.446c0.805,0,1.626-0.322,2.183-0.894l0.527,0.718c-0.703,0.703-1.655,1.084-2.813,1.084
				C221.441,475.465,219.933,473.956,219.933,471.744z M223.404,468.946c-1.509,0-2.256,1.274-2.314,2.358h4.643
				C225.718,470.25,225.015,468.946,223.404,468.946z"/>
			<path style="fill:#A3B5C4;" d="M233.35,475.289v-1.055c-0.527,0.718-1.392,1.23-2.388,1.23c-1.845,0-3.149-1.406-3.149-3.706
				c0-2.256,1.289-3.721,3.149-3.721c0.952,0,1.817,0.469,2.388,1.245v-3.765h1.098v9.771H233.35z M233.35,473.37v-3.208
				c-0.396-0.615-1.245-1.143-2.124-1.143c-1.421,0-2.27,1.172-2.27,2.739c0,1.567,0.85,2.725,2.27,2.725
				C232.105,474.483,232.954,473.985,233.35,473.37z"/>
			<path style="fill:#A3B5C4;" d="M239.692,475.289v-9.771h1.099v3.765c0.572-0.776,1.421-1.245,2.388-1.245
				c1.846,0,3.15,1.465,3.15,3.721c0,2.3-1.304,3.706-3.15,3.706c-0.996,0-1.86-0.513-2.388-1.23v1.055H239.692z M242.9,474.483
				c1.436,0,2.285-1.157,2.285-2.725c0-1.567-0.85-2.739-2.285-2.739c-0.864,0-1.728,0.527-2.109,1.143v3.208
				C241.171,473.985,242.036,474.483,242.9,474.483z"/>
			<path style="fill:#A3B5C4;" d="M247.528,477.062c0.161,0.073,0.425,0.117,0.601,0.117c0.483,0,0.805-0.161,1.055-0.747
				l0.468-1.069l-2.959-7.148h1.187l2.358,5.801l2.344-5.801h1.201l-3.545,8.511c-0.425,1.025-1.143,1.421-2.08,1.436
				c-0.234,0-0.601-0.044-0.806-0.102L247.528,477.062z"/>
		</g>
	</g>
</g>
</svg>
