<svg xmlns="http://www.w3.org/2000/svg" xml:space="preserve" width="800" height="800" fill="#fff" version="1.0" viewBox="0 0 64 64"><path fill="#ffca0a" d="M63.893 24.277a2.003 2.003 0 0 0-1.595-1.343l-19.674-3.006L33.809 1.15a2.002 2.002 0 0 0-3.622 0l-8.815 18.778-19.674 3.007a2.003 2.003 0 0 0-1.13 3.374l14.294 14.657-3.378 20.704a1.996 1.996 0 0 0 .822 1.957 1.994 1.994 0 0 0 2.119.116l17.572-9.719 17.572 9.719a1.991 1.991 0 0 0 2.119-.116c.627-.44.946-1.201.822-1.957l-3.378-20.704 14.294-14.657a2 2 0 0 0 .467-2.032z"/></svg>